P2
21
7
255
0   0   0   0   0   0   0   0   0   0   0   0   0   0   0   0   0   0   0   0   0
0  40  40  40   0  80  80  80   0 120   0   0   0 160   0 160   0 200 200 200   0
0  40   0   0   0  80   0  80   0 120   0   0   0 160   0 160   0 200   0 200   0
0  40  40  40   0  80  80  80   0 120   0   0   0 160   0 160   0 200 200 200   0
0   0   0  40   0  80   0  80   0 120   0   0   0 160   0 160   0 200   0 200   0
0  40  40  40   0  80   0  80   0 120 120 120   0   0 160   0   0 200   0 200   0
0   0   0   0   0   0   0   0   0   0   0   0   0   0   0   0   0   0   0   0   0