P2
100
127
255
172 175 172 159 142 103 80 96 96 101 99 106 102 103 103 101 107 111 118 119 122 127 127 129 130 129 124 128 128 130 130 129 130 129 130 129 133 129 131 133 130 133 130 131 131 128 131 131 128 128 129 133 127 131 135 127 128 128 127 129 126 125 125 125 123 126 117 120 111 97 113 135 151 159 165 156 155 152 155 157 157 154 156 154 156 153 158 158 163 158 177 212 220 222 213 140 98 108 116 121 
172 175 171 158 135 101 82 88 92 100 96 99 96 100 99 98 107 112 119 120 120 123 127 127 127 127 127 126 129 128 132 131 128 130 130 128 127 128 132 129 128 130 131 129 127 127 129 129 125 129 130 129 126 129 132 126 126 128 125 125 124 126 124 123 123 122 118 114 109 97 112 128 147 157 163 157 154 152 154 155 156 155 154 156 157 154 157 161 159 156 169 207 219 224 217 163 100 106 115 117 
171 175 170 153 130 102 79 83 89 93 94 97 99 93 98 103 105 112 118 119 121 122 125 127 124 128 126 126 126 126 129 129 129 128 130 125 130 127 129 129 127 125 127 127 124 124 128 128 125 126 125 127 126 124 128 126 126 124 125 124 125 123 124 125 123 122 119 114 107 101 99 117 136 152 159 160 156 155 160 159 155 159 157 155 159 154 157 156 156 156 154 184 215 221 223 205 127 102 108 115 
172 171 166 151 128 104 79 83 91 96 100 101 98 96 92 100 104 112 114 119 121 121 123 123 126 128 128 125 123 127 128 127 128 128 127 130 128 124 129 127 125 127 126 128 124 124 128 126 123 127 131 130 125 127 125 126 128 126 125 124 123 125 123 125 125 121 119 117 109 108 99 106 130 147 156 162 162 160 161 165 164 159 157 157 157 156 155 153 154 155 154 157 203 218 223 222 178 106 108 110 
170 168 163 152 130 100 81 80 92 89 99 99 96 96 94 97 105 110 113 117 119 123 123 126 126 127 127 128 125 127 128 125 129 130 129 128 127 127 124 129 127 129 127 129 126 123 129 129 123 127 132 132 128 127 125 129 124 121 127 125 121 123 125 126 122 125 122 118 109 111 104 98 121 141 153 159 165 163 161 165 166 163 161 162 157 153 156 156 152 152 156 151 174 213 221 224 212 142 101 108 
167 165 161 153 130 108 81 83 90 98 96 95 98 94 96 97 105 109 114 117 119 120 123 126 124 124 128 125 125 127 126 125 126 128 124 125 125 127 126 126 123 127 123 125 125 126 125 126 124 126 128 133 129 128 125 126 127 126 124 121 119 123 122 124 122 125 119 121 114 108 105 99 113 138 152 158 164 165 163 163 166 162 162 156 157 155 157 153 155 154 154 153 150 196 217 223 223 193 113 102 
163 160 163 151 129 98 74 80 87 97 97 96 98 94 92 100 104 109 117 116 119 122 122 121 122 124 123 124 124 124 127 123 125 125 123 125 127 127 130 125 120 121 119 120 123 123 121 122 123 125 121 126 128 126 127 126 124 122 124 123 120 122 124 120 122 121 121 120 117 104 102 100 116 131 148 160 164 162 164 160 162 162 163 158 158 157 156 154 155 154 152 152 148 167 210 223 226 217 161 101 
159 158 166 154 130 99 75 81 90 96 99 96 97 96 95 99 102 111 116 117 120 120 123 124 122 121 123 123 125 124 126 126 123 123 123 122 121 131 129 126 119 117 114 116 119 123 120 119 119 123 125 124 124 128 127 125 121 122 126 124 120 120 121 120 123 123 120 115 115 109 104 103 116 133 147 157 159 164 163 161 160 161 160 160 156 157 156 156 158 154 153 152 146 147 190 217 224 226 206 121 
162 161 163 157 130 97 79 84 90 93 97 99 96 91 92 96 105 106 113 117 116 122 120 124 123 123 122 121 123 126 125 121 126 123 125 126 123 125 127 121 121 116 117 114 117 122 123 117 119 120 121 123 125 125 129 123 123 123 125 123 121 123 120 120 122 121 122 116 112 108 106 99 113 124 141 153 157 160 161 161 160 163 159 158 158 158 157 157 156 156 155 154 150 143 157 208 222 227 224 183 
161 161 162 152 129 96 71 80 88 91 95 94 95 91 96 96 105 108 113 115 114 118 121 120 122 122 117 120 121 123 121 122 121 124 125 125 122 122 122 120 117 118 117 116 117 122 115 114 115 119 119 121 124 127 126 123 121 121 123 122 121 119 120 120 120 123 116 116 112 112 105 98 109 126 138 150 154 157 157 158 159 158 157 158 158 156 158 158 157 156 153 151 148 144 143 181 217 227 226 215 
160 161 161 152 127 93 69 79 88 94 93 95 95 93 94 94 103 108 115 114 117 118 118 116 122 120 119 121 120 121 120 121 120 123 123 122 124 123 122 121 122 121 118 118 117 113 113 114 115 115 116 121 123 125 126 120 122 121 123 125 119 123 122 121 121 119 117 114 110 107 108 102 109 124 137 144 149 153 156 160 156 157 156 156 154 155 155 157 155 153 152 149 146 143 141 151 207 223 226 226 
164 161 163 153 131 95 73 80 86 96 96 97 94 95 94 100 101 110 112 115 117 117 120 118 122 117 121 124 121 123 121 119 126 123 125 122 119 119 127 119 118 124 131 130 142 164 167 163 157 146 128 116 113 116 117 118 119 123 124 125 124 120 121 120 120 120 118 112 110 110 104 99 108 123 136 143 145 150 152 157 158 154 155 154 156 156 155 154 152 148 147 145 142 142 143 142 177 214 226 227 
163 163 163 156 129 98 74 79 84 90 96 95 95 95 94 98 106 107 114 116 114 122 121 121 121 120 122 120 123 121 119 121 122 126 121 120 120 119 134 144 151 156 153 172 173 182 185 187 192 188 193 185 155 128 112 115 118 119 126 125 126 120 120 118 121 119 116 113 112 103 105 100 108 120 136 143 143 146 149 154 156 156 155 155 155 154 152 150 148 149 143 142 143 141 140 139 150 198 221 226 
164 164 164 154 131 95 68 76 81 90 95 91 97 95 95 98 104 109 113 114 114 119 121 118 116 124 123 120 122 120 122 119 121 121 118 121 126 144 153 154 145 153 161 175 174 181 189 188 181 184 190 194 198 200 179 131 109 115 118 120 119 120 119 119 117 117 112 112 108 106 107 98 108 125 137 145 141 143 146 152 153 156 152 151 151 150 148 147 144 144 141 139 138 140 142 139 139 162 213 225 
165 166 163 153 133 90 63 71 85 87 88 90 93 90 96 97 104 108 110 114 114 117 119 115 118 121 119 120 122 119 117 118 138 141 134 122 139 144 150 145 155 153 152 161 170 172 181 182 188 186 189 194 198 201 205 200 162 111 114 117 123 116 117 118 117 114 109 107 104 105 100 98 109 122 138 144 145 145 145 148 151 152 152 146 149 146 145 146 143 142 139 138 136 139 138 138 140 135 189 222 
166 168 163 154 133 94 67 73 77 84 90 86 91 92 95 98 103 106 110 110 117 112 116 116 116 118 119 116 116 128 126 145 142 128 125 120 130 136 132 137 142 150 158 157 169 169 179 178 187 189 194 195 197 197 204 204 206 189 135 108 110 113 113 116 113 117 111 106 105 102 99 92 103 122 135 145 145 142 145 146 144 150 151 151 143 141 142 143 146 142 140 139 138 140 140 141 141 136 151 207 
168 166 165 152 128 94 59 65 77 83 85 88 88 90 98 94 95 103 109 109 109 113 118 118 116 118 117 114 117 148 105 122 120 119 121 121 132 132 131 139 140 142 150 156 164 166 178 184 188 194 194 194 199 197 196 202 203 204 200 157 106 102 111 106 109 111 111 105 102 100 96 92 103 122 137 147 146 143 143 142 143 143 147 151 143 137 139 140 143 140 142 140 137 139 141 142 145 141 141 174 
164 167 164 148 127 88 60 69 77 84 93 90 92 91 91 98 100 104 107 105 110 113 114 111 117 118 114 116 124 108 108 113 115 119 123 120 132 133 133 135 138 134 139 148 158 172 181 182 189 186 192 194 197 200 197 202 204 207 204 207 187 111 95 98 103 106 107 106 103 99 99 94 101 122 140 148 150 149 146 138 137 134 137 147 147 142 140 142 144 141 140 139 139 142 142 144 143 144 149 153 
169 165 162 148 127 91 57 68 80 86 89 97 92 90 88 93 100 103 106 107 109 111 112 113 115 118 114 128 126 107 108 103 108 115 126 124 125 128 134 139 132 139 142 147 153 165 171 175 186 193 192 199 199 200 202 205 205 204 206 206 205 198 123 97 90 100 102 102 99 99 97 90 99 120 144 151 153 152 146 138 127 121 125 138 148 144 137 144 146 140 139 138 139 144 143 147 144 146 151 154 
170 166 161 152 128 91 59 69 76 95 88 91 90 93 91 96 97 105 108 109 107 114 112 113 114 115 117 135 108 100 101 105 114 112 120 124 126 130 127 137 137 137 140 148 150 157 170 182 189 193 193 197 197 200 200 202 202 199 201 209 216 223 228 213 94 87 98 98 92 95 96 90 102 124 143 151 155 153 151 142 118 103 109 125 143 146 143 142 146 139 141 138 142 140 143 144 145 150 154 126 
170 169 163 150 124 87 60 69 79 84 91 88 91 92 95 98 101 105 105 109 110 115 112 116 114 114 121 117 99 102 106 113 110 118 116 118 122 124 126 134 130 136 135 144 145 156 167 181 195 193 194 195 195 200 195 193 200 210 218 217 218 219 223 231 175 74 88 94 92 91 93 87 102 121 142 151 153 154 151 141 120 82 78 104 132 147 144 140 143 139 140 139 142 142 143 142 147 151 139 51 
170 168 163 148 124 94 66 70 79 83 89 88 93 97 91 93 100 103 109 107 108 112 115 115 119 118 118 96 103 105 111 114 118 115 116 114 118 130 130 139 138 136 139 144 145 154 165 176 190 191 194 198 186 184 199 214 216 215 214 216 215 214 218 226 229 136 70 81 91 90 89 84 99 119 140 152 151 152 151 141 121 78 35 80 120 139 145 140 142 141 140 138 141 140 142 142 150 150 78 22 
168 168 164 148 122 90 61 70 81 85 87 94 96 92 92 95 99 102 108 109 111 115 114 114 117 119 100 99 103 104 113 113 111 117 111 115 125 124 136 136 137 135 144 143 149 151 162 170 185 184 187 174 191 210 217 212 212 212 214 214 212 213 215 218 228 221 105 70 79 86 89 86 96 118 139 153 154 153 149 145 125 87 27 44 99 126 145 146 140 143 138 140 140 142 142 145 151 109 38 44 
170 166 163 150 124 89 62 72 85 90 86 86 88 93 89 96 95 106 106 110 112 110 114 115 119 106 100 106 107 107 112 113 106 104 113 126 125 131 139 138 143 142 149 141 141 148 159 178 181 167 171 209 211 209 208 215 213 208 205 208 213 219 218 217 224 228 203 75 67 76 78 80 98 121 140 153 154 152 152 143 131 86 24 33 84 112 137 146 143 139 140 139 138 142 140 149 140 41 23 25 
168 167 162 150 125 94 64 70 83 87 90 91 88 91 92 97 96 106 107 112 109 114 115 121 112 108 107 105 106 110 111 112 112 114 119 127 128 133 137 137 141 145 141 138 142 148 163 170 148 182 206 208 210 211 208 207 203 206 212 210 209 210 214 217 217 219 226 202 118 63 69 73 92 121 138 152 154 154 151 149 128 84 26 35 55 94 124 140 144 140 138 136 142 143 147 147 77 22 16 29 
166 168 163 149 125 93 61 66 78 85 90 89 94 89 95 94 97 102 108 109 113 114 112 129 102 98 108 105 106 107 108 110 116 119 131 128 133 139 138 136 141 138 132 133 140 144 148 152 196 202 203 204 204 205 205 208 205 207 207 212 212 213 215 216 217 216 221 224 222 118 53 66 88 120 141 153 153 151 153 148 125 87 30 23 24 65 107 130 146 143 137 138 141 144 149 114 22 20 23 28 
166 165 164 152 124 92 64 67 82 86 86 92 91 89 90 91 97 103 105 110 111 106 142 112 92 95 103 105 106 106 107 109 114 119 131 132 144 138 134 143 140 136 132 129 133 134 172 185 203 206 198 200 198 197 200 202 211 209 213 212 211 211 216 214 216 214 220 220 225 214 63 54 83 116 139 151 153 152 151 146 126 93 32 26 20 29 79 116 135 145 137 133 140 147 138 48 24 27 28 37 
165 165 165 152 127 93 66 68 76 84 90 89 94 91 91 93 99 106 105 108 108 104 176 99 92 99 104 102 104 108 114 115 123 121 128 138 138 129 136 136 136 129 124 115 139 179 195 196 195 197 200 195 198 199 204 207 209 212 210 211 214 212 213 211 212 212 215 222 224 231 170 54 75 114 137 150 153 155 152 148 125 89 38 25 22 14 36 86 120 154 159 136 146 145 80 23 25 28 37 34 
166 165 163 153 126 97 65 67 77 84 83 90 91 90 93 101 97 102 104 104 101 126 182 91 97 95 99 106 104 103 112 114 124 126 135 137 136 132 136 139 123 121 113 148 186 193 192 194 194 192 183 191 201 204 204 202 209 212 209 210 210 210 207 211 216 218 213 217 221 229 229 89 65 113 139 149 148 152 151 150 127 92 39 24 24 18 17 93 196 217 213 204 210 139 31 26 33 35 37 39 
165 164 164 149 126 91 55 65 74 77 84 85 87 86 91 94 96 98 102 102 93 170 157 91 91 99 101 106 106 104 116 115 124 127 136 129 128 132 136 118 108 121 160 184 188 190 183 184 188 191 194 193 202 201 202 205 203 205 206 203 208 213 213 209 212 216 216 216 218 222 228 162 59 105 136 149 153 152 152 148 127 90 35 24 18 25 109 215 208 208 221 227 230 205 26 27 31 42 39 47 
169 167 162 149 126 88 55 57 69 82 88 89 92 88 88 91 94 96 105 102 96 201 152 93 93 99 99 111 105 112 112 123 125 121 118 115 135 129 122 106 126 169 183 183 169 182 185 179 184 191 195 197 201 200 203 201 198 197 204 209 208 211 207 210 206 213 213 213 211 216 225 223 95 98 135 154 152 155 152 147 127 86 26 17 38 151 214 192 209 224 226 225 227 234 73 26 31 38 44 32 
170 167 164 150 126 90 61 63 74 83 89 91 92 90 92 90 97 101 104 109 119 209 136 84 95 95 103 99 105 108 122 128 117 115 125 126 124 122 102 127 176 183 176 171 177 178 181 188 185 185 200 198 193 195 195 194 201 205 205 204 201 209 207 209 209 213 215 212 213 212 217 224 188 92 132 152 156 155 156 146 122 74 19 55 185 208 182 213 222 217 219 214 219 233 107 22 28 36 38 31 
171 169 168 155 130 91 65 66 77 86 87 92 90 90 91 97 96 102 106 97 139 200 135 90 94 100 87 102 109 121 116 116 114 120 132 130 125 104 132 170 172 170 170 170 174 187 188 181 193 195 190 191 195 183 187 198 202 205 201 204 204 204 207 203 206 203 204 210 212 211 214 217 221 172 131 149 152 154 153 141 107 58 113 204 203 193 217 218 218 210 210 214 223 233 105 23 37 44 29 24 
168 170 170 156 132 91 61 69 80 86 91 92 92 97 89 95 102 105 107 94 166 191 116 88 86 93 102 106 103 116 107 117 118 125 118 121 99 138 165 158 154 160 169 173 177 183 186 194 178 192 187 185 176 184 191 197 191 198 203 201 206 204 206 189 183 205 208 210 209 209 207 210 215 221 184 144 153 150 147 133 122 181 212 200 202 219 216 213 210 211 211 218 225 229 94 27 32 41 40 32 
170 171 171 158 130 96 60 65 76 87 93 92 92 92 87 92 96 100 100 87 185 170 120 98 92 97 94 91 106 110 110 120 120 113 114 109 136 161 155 149 153 149 164 178 183 181 179 179 188 186 184 173 182 193 189 192 194 190 198 200 207 208 189 183 200 204 207 206 209 207 206 203 207 209 214 155 151 146 148 181 212 203 198 210 218 215 211 209 208 211 217 221 224 226 61 30 37 30 35 28 
173 171 174 162 134 93 59 68 81 89 90 91 91 90 90 92 99 98 98 86 207 167 125 99 96 95 92 96 100 101 114 109 111 117 110 144 149 150 147 150 139 160 167 172 183 174 171 176 187 176 165 186 181 182 188 184 184 190 192 195 183 187 192 193 193 196 202 206 199 199 200 203 195 199 207 173 149 170 203 209 199 199 217 214 209 210 210 211 211 211 215 220 226 217 37 42 41 36 28 21 
174 176 175 163 135 94 63 66 80 83 89 91 89 86 90 91 92 96 91 102 214 175 131 105 93 98 94 98 104 107 110 113 116 108 139 150 150 136 144 135 152 163 167 164 164 180 183 176 164 172 181 178 186 180 180 183 186 197 191 183 188 194 196 191 201 200 203 196 193 195 196 197 191 192 196 200 192 209 200 202 211 212 212 207 207 207 210 212 209 205 215 218 228 187 24 33 34 41 34 24 
175 175 176 162 130 94 61 64 78 83 87 89 88 90 86 90 92 93 87 122 212 175 143 119 113 96 96 97 100 106 116 117 109 133 150 137 145 141 134 148 152 154 153 161 177 176 174 165 173 180 176 181 178 181 180 174 182 184 190 189 189 186 192 201 194 198 190 184 183 194 191 189 180 181 200 201 193 203 206 217 212 206 208 206 206 209 211 212 196 199 214 218 226 132 19 26 30 35 27 27 
175 175 174 161 134 97 62 71 82 81 89 89 87 89 89 88 93 97 87 131 209 174 149 134 120 101 95 95 100 111 103 103 135 139 142 139 133 129 147 153 154 140 146 160 174 166 155 181 180 170 176 180 184 175 170 179 171 180 183 180 187 193 186 199 194 183 187 188 182 182 183 172 185 203 197 193 205 211 211 209 205 208 208 207 209 212 210 202 171 184 204 208 220 70 22 25 32 42 27 32 
174 174 173 161 133 93 66 70 82 88 90 89 86 90 87 90 91 92 86 133 201 173 160 142 127 116 90 84 100 110 100 131 142 132 141 127 124 147 151 150 143 153 152 147 155 158 178 174 168 174 172 169 175 167 173 170 173 165 174 180 181 188 191 185 184 181 179 187 174 167 180 198 198 195 205 211 208 205 200 204 206 207 207 208 211 213 207 174 165 180 156 196 182 25 40 38 34 30 23 27 
173 174 172 161 136 96 62 66 82 85 89 89 87 87 90 89 92 90 79 144 194 175 162 144 131 120 93 92 99 95 135 137 126 137 121 122 140 143 142 143 147 145 160 147 152 166 160 165 174 168 168 167 166 173 163 168 165 171 174 178 174 176 181 178 175 178 172 175 171 187 191 189 199 210 211 204 201 200 200 204 206 208 208 209 213 212 188 167 179 144 170 202 115 18 26 41 32 24 33 28 
174 172 171 161 138 99 62 71 78 88 89 86 85 86 88 90 90 89 74 156 194 185 161 150 135 127 109 94 93 127 138 131 131 116 121 145 143 138 141 130 141 152 139 152 163 156 161 159 159 152 164 169 169 156 160 173 168 173 166 171 173 171 165 169 172 168 158 176 194 186 194 203 206 202 199 199 201 202 205 208 210 209 209 211 214 209 162 172 157 165 165 213 51 26 32 34 33 36 35 40 
175 177 175 162 139 102 59 66 81 84 89 84 85 90 86 87 88 83 70 167 206 191 171 161 140 144 111 81 126 130 126 133 119 122 139 138 141 135 124 134 152 135 148 164 152 139 142 153 158 141 140 110 142 163 167 164 164 164 167 160 165 166 165 165 156 161 191 189 189 198 208 201 196 196 199 203 204 207 208 209 208 211 213 215 215 182 169 151 125 115 189 176 19 28 40 34 35 51 40 39 
175 174 175 166 139 96 59 64 77 87 85 87 87 87 86 86 87 83 66 167 207 193 169 163 154 151 120 109 119 122 132 114 118 138 138 134 131 122 137 142 132 145 149 128 114 128 110 100 105 117 162 152 124 132 139 159 153 148 148 154 134 93 141 150 166 190 178 196 206 204 204 200 200 201 202 208 208 206 209 211 211 211 212 218 204 165 119 82 92 157 218 90 16 25 33 26 30 41 36 66 
176 178 173 165 139 97 57 65 76 84 86 90 84 91 87 87 87 81 68 157 208 197 186 163 138 150 132 105 115 121 113 115 136 136 135 120 123 128 131 130 138 147 136 129 138 114 107 82 66 100 164 158 133 120 107 86 101 97 80 54 50 55 70 180 174 171 197 201 203 200 204 202 202 203 207 208 209 208 211 212 213 210 213 191 137 90 80 89 137 204 173 24 28 30 29 22 35 35 38 110 
176 175 175 163 139 97 58 65 76 85 89 87 86 91 85 89 87 83 74 134 209 202 198 158 118 135 111 106 115 111 105 132 133 132 125 126 130 132 125 135 140 128 116 137 113 112 102 119 86 101 110 128 92 51 74 95 58 65 30 21 30 70 157 162 184 208 204 202 200 202 203 203 201 203 207 208 208 204 214 212 207 167 114 87 88 79 99 137 191 201 66 23 32 34 34 29 37 26 52 141 
177 175 174 164 140 97 58 68 76 87 88 88 88 90 87 90 84 83 73 99 214 206 201 163 104 141 133 116 106 106 124 135 133 124 118 128 134 127 129 137 127 113 133 116 117 115 88 68 48 54 93 116 93 101 100 67 54 71 30 19 71 167 143 187 198 203 205 202 201 200 201 202 201 202 205 207 209 209 213 171 98 84 77 85 98 117 165 196 161 42 21 30 33 28 32 36 39 27 91 153 
174 176 174 164 140 96 65 63 79 84 85 84 88 91 87 90 85 84 85 69 208 205 203 162 128 140 144 116 100 117 131 131 121 118 122 132 125 129 135 132 103 130 121 92 75 78 66 40 37 81 114 85 40 92 95 76 36 72 18 99 166 137 186 198 189 195 200 198 196 196 199 198 201 202 205 207 205 178 134 126 89 85 101 130 155 171 191 177 43 27 28 34 36 25 27 46 49 54 133 153 
172 176 174 163 143 98 64 63 72 86 84 89 84 90 88 87 84 90 86 65 167 207 198 183 147 142 136 101 111 134 130 117 113 124 124 123 117 133 131 137 108 116 67 58 79 48 37 28 42 119 89 32 69 83 88 29 45 79 112 156 148 198 198 191 189 194 194 196 193 196 199 199 199 205 206 182 119 94 114 147 147 152 165 170 170 185 183 38 24 35 42 35 31 31 27 42 34 85 149 147 
173 176 174 165 142 102 59 67 78 82 86 86 87 92 84 90 87 91 92 74 124 211 203 192 168 156 121 107 126 133 120 109 119 122 122 116 134 117 101 116 93 60 68 69 43 40 35 24 87 65 39 65 105 104 33 64 69 132 144 154 196 202 189 187 190 191 188 187 191 197 197 199 204 201 114 80 82 122 113 147 165 169 172 177 189 189 49 19 28 38 39 40 28 27 37 35 38 124 148 148 
173 173 175 165 142 100 56 62 75 84 86 84 85 86 85 86 88 94 94 89 76 196 213 184 173 172 92 127 123 122 107 124 120 115 117 129 129 112 66 65 74 72 74 49 39 82 18 47 84 26 39 72 76 53 104 48 124 132 156 201 201 198 191 189 189 190 182 188 189 197 201 197 194 124 57 79 98 129 126 127 153 171 175 193 150 41 21 26 31 40 47 41 32 23 37 35 70 136 142 150 
175 176 177 164 145 98 60 63 73 80 87 88 87 87 84 86 90 97 98 96 83 111 216 197 188 160 124 119 126 110 121 125 128 122 120 123 117 103 86 68 67 80 35 20 80 65 24 57 62 37 35 31 81 35 123 115 109 151 200 199 199 191 189 188 191 184 183 192 193 194 193 190 195 156 76 89 101 105 139 121 151 178 190 119 29 26 23 35 38 36 43 30 28 30 39 51 101 138 133 164 
176 175 177 166 143 100 59 61 74 80 84 86 84 87 86 90 94 95 101 101 92 74 183 207 198 148 134 112 109 117 125 115 109 121 124 120 98 62 60 70 94 62 40 28 78 55 57 38 34 45 67 57 77 65 105 133 147 184 191 194 194 187 184 185 185 185 184 190 191 194 195 198 202 185 109 74 100 87 111 140 152 163 79 20 27 29 29 42 38 42 41 25 30 34 35 63 127 133 139 170 
175 176 176 170 142 104 55 62 71 79 86 89 87 83 87 86 91 97 102 104 97 79 159 221 204 166 117 118 103 120 115 114 130 124 96 117 80 60 42 41 78 55 47 46 49 99 53 30 28 31 32 22 57 90 78 140 167 184 185 191 182 178 184 184 183 183 181 190 202 198 200 200 200 195 141 76 45 81 73 137 152 135 53 21 20 29 41 41 46 43 33 22 29 36 43 92 138 127 149 171 
174 178 178 166 143 101 57 61 78 86 87 87 89 87 87 88 92 97 106 106 97 82 157 220 208 111 112 113 119 109 113 131 126 120 71 50 60 47 32 31 68 62 81 41 43 91 94 31 31 22 19 41 111 91 137 171 188 191 194 189 173 174 181 186 169 179 187 199 202 203 199 202 202 197 157 82 45 35 78 115 150 137 38 27 28 28 37 43 47 47 35 23 30 27 50 126 140 137 159 167 
173 176 176 165 146 107 58 60 76 85 88 88 91 86 88 91 93 99 103 106 103 90 134 223 176 98 98 110 110 115 122 107 111 107 71 29 67 27 28 30 44 67 67 45 54 41 123 65 39 16 32 134 110 164 157 163 186 196 197 177 171 176 189 172 171 182 191 200 201 206 205 208 210 208 175 99 49 24 57 91 164 130 30 25 28 33 39 41 52 39 27 24 32 36 80 145 137 152 157 159 
174 177 176 169 145 107 62 63 73 82 91 89 93 95 91 91 90 122 111 107 103 99 100 220 153 105 111 101 112 124 110 86 70 49 55 47 63 25 45 36 31 43 51 52 73 50 106 23 15 20 130 117 169 174 166 163 176 197 186 178 177 178 159 164 175 187 194 201 203 206 206 210 212 212 193 123 57 24 29 60 161 141 41 31 36 47 41 49 51 35 27 33 35 30 116 143 138 164 162 160 
177 177 177 167 143 109 67 65 77 89 89 95 92 93 89 90 92 122 107 108 109 106 100 173 164 110 106 115 117 124 118 91 55 40 23 40 53 36 44 36 39 32 43 47 91 83 96 56 16 115 127 167 181 184 176 164 179 201 184 178 170 151 158 168 180 195 195 202 204 208 208 212 213 213 200 142 67 25 17 55 142 144 48 41 37 41 46 49 53 31 29 35 29 56 137 141 151 172 168 163 
176 179 175 168 145 108 67 69 84 86 91 92 92 96 94 91 94 114 106 112 112 112 108 119 172 111 112 123 127 124 80 48 47 64 23 26 76 39 58 31 32 49 41 40 63 47 43 83 90 129 150 173 184 194 181 159 186 196 172 168 155 160 171 174 180 192 198 201 204 206 208 211 213 215 208 158 85 34 21 43 113 150 56 33 39 48 46 48 43 31 34 40 27 90 149 140 161 173 172 171 
177 177 179 167 148 105 65 67 78 89 92 94 95 94 91 92 98 103 110 105 106 104 110 116 114 109 121 128 127 102 40 53 29 61 47 26 40 67 60 25 27 57 43 37 51 60 9 95 131 140 169 165 184 195 192 165 189 174 158 159 160 166 173 175 181 188 196 202 201 202 205 209 211 214 208 178 99 51 22 30 102 163 57 34 42 44 54 53 35 32 39 29 45 130 145 143 168 171 168 170 
176 179 179 170 146 105 63 65 78 88 90 90 95 91 93 92 99 103 108 111 112 112 130 114 146 132 121 128 116 73 57 53 33 89 25 32 75 72 35 29 27 57 46 52 68 33 39 122 122 176 176 166 181 198 194 188 164 142 155 164 167 170 178 178 179 183 189 198 198 199 204 207 210 212 209 187 106 44 18 27 72 174 72 47 56 47 54 48 35 37 37 29 75 141 136 150 170 172 171 169 
178 180 178 170 146 104 64 69 75 84 94 94 94 93 90 93 97 106 110 112 109 168 126 32 26 121 150 102 87 46 93 26 67 72 25 40 38 40 24 30 40 45 56 51 58 27 122 110 181 179 191 160 182 201 200 139 83 96 105 110 134 165 179 181 178 177 186 196 198 194 199 204 206 209 197 160 80 31 16 19 61 174 91 43 52 50 64 43 28 35 37 34 106 142 137 162 168 167 166 168 
176 180 179 170 148 106 64 68 77 85 95 92 92 91 91 89 96 105 109 111 126 153 97 27 33 145 120 62 59 70 69 35 83 82 23 55 61 60 35 22 23 72 64 55 27 92 119 169 179 196 185 165 195 195 137 136 144 145 120 74 58 72 125 167 173 172 181 192 194 191 196 198 187 150 109 88 73 50 20 28 43 168 110 41 55 58 50 38 35 36 39 43 129 138 140 166 168 166 163 163 
175 177 180 172 148 111 65 68 79 89 94 92 93 85 90 91 94 97 103 134 153 141 140 105 72 126 78 60 49 98 48 89 33 94 23 56 23 61 59 17 22 33 65 33 42 134 158 178 190 204 174 185 188 110 107 117 108 112 121 98 98 85 80 125 158 165 174 190 196 191 188 163 110 98 91 105 88 62 38 23 43 159 123 39 51 49 50 35 37 37 38 68 139 135 152 166 166 165 160 163 
180 179 179 170 150 109 65 62 72 86 93 89 89 87 86 86 87 126 147 147 155 151 156 139 95 35 38 67 100 74 75 95 19 69 38 66 18 33 96 34 27 23 21 21 121 130 183 183 205 199 189 171 72 61 52 39 32 38 33 31 70 123 113 120 140 154 168 194 200 197 178 115 73 40 26 38 42 51 32 18 47 150 129 54 56 53 37 29 33 40 25 99 144 137 161 167 165 162 161 163 
178 180 179 168 148 110 60 58 74 81 87 88 84 84 82 71 124 192 153 143 152 143 122 55 39 24 100 64 84 76 80 118 21 52 49 84 23 19 46 107 51 19 17 66 126 184 175 191 207 198 174 63 34 26 31 24 26 73 121 40 19 78 125 119 132 147 167 196 206 194 81 35 44 76 60 24 42 34 29 21 43 140 126 65 57 52 29 33 35 38 32 121 144 148 168 165 163 160 158 160 
180 180 181 172 146 108 62 64 78 85 88 86 90 85 80 68 133 187 144 146 151 118 94 40 39 78 45 75 22 77 95 89 33 27 27 83 40 22 28 31 46 32 35 124 148 180 187 202 206 193 86 56 24 47 60 59 56 90 206 165 60 82 110 112 127 138 166 203 215 114 41 32 74 125 132 33 29 32 28 29 49 134 128 77 66 47 30 35 37 29 63 139 143 157 164 161 164 160 159 158 
180 185 183 173 145 110 67 68 82 88 94 92 95 96 80 46 83 122 189 191 127 49 29 28 83 46 57 53 55 102 98 95 28 30 29 50 59 28 28 29 18 26 81 108 170 171 195 208 194 116 114 98 58 46 107 67 69 154 211 198 109 102 94 109 122 142 173 211 195 101 92 84 79 147 139 45 22 21 24 24 55 124 141 80 70 41 33 39 36 31 89 147 144 161 163 160 162 159 158 157 
183 183 181 175 149 109 73 73 84 92 99 98 97 50 44 97 142 174 204 151 61 38 42 100 77 36 57 77 79 110 94 123 44 32 20 28 34 37 29 28 18 49 121 167 171 194 208 190 115 114 118 138 120 86 98 125 153 188 198 179 139 113 110 110 119 135 177 220 186 100 126 124 152 170 114 36 37 34 34 34 61 115 158 77 75 37 30 32 38 35 120 143 149 165 164 161 159 159 158 162 
181 185 185 175 152 114 70 74 89 96 104 101 100 46 124 152 137 152 96 41 36 109 86 86 43 26 73 81 59 117 116 120 91 26 27 26 29 25 34 18 14 110 116 185 185 203 195 101 110 130 129 139 139 132 120 109 115 126 131 162 166 135 111 117 118 133 171 221 197 163 140 124 121 90 57 61 59 32 31 45 54 104 170 81 62 36 33 35 35 74 136 139 155 164 160 160 159 157 155 158 
182 184 186 176 153 114 64 72 84 94 101 95 127 144 150 129 74 76 60 23 31 61 135 132 97 32 59 70 84 92 117 137 76 40 29 29 32 32 30 16 58 123 161 177 198 200 91 91 120 134 145 146 146 142 140 134 134 141 151 160 153 143 120 125 116 123 170 217 207 171 148 129 122 104 88 91 66 32 26 41 49 101 172 82 59 33 30 48 27 87 141 138 163 164 157 161 156 156 159 158 
182 184 186 178 154 115 69 71 81 94 100 97 108 138 111 83 77 78 38 44 62 99 92 86 60 21 47 65 86 132 83 104 84 33 28 27 26 36 36 27 125 116 184 195 208 95 82 104 123 135 147 154 161 161 163 159 162 169 170 167 165 136 132 125 117 121 167 211 212 186 161 151 130 120 108 107 74 36 26 44 47 96 175 87 54 36 24 35 27 114 140 147 163 163 161 158 156 156 158 158 
180 183 184 176 153 115 69 70 81 91 97 111 130 134 155 133 113 52 49 75 88 116 96 102 26 27 43 101 90 100 122 133 83 62 31 33 25 34 30 80 119 162 190 208 119 54 96 109 122 133 146 154 166 169 174 173 172 172 173 173 156 137 136 126 115 117 153 207 217 186 171 148 135 127 115 112 81 36 33 43 42 84 177 92 37 35 31 32 43 131 138 152 166 162 159 156 159 158 159 159 
178 183 185 176 153 116 67 67 80 105 127 134 135 122 71 66 59 52 56 81 101 119 120 47 33 27 29 48 77 102 57 32 131 101 39 34 29 29 33 129 120 189 204 163 23 68 102 114 117 133 144 153 165 172 178 176 180 178 177 170 158 146 141 127 122 118 147 205 220 186 165 157 136 122 118 116 81 36 41 49 43 73 168 116 33 27 33 24 66 141 139 160 166 163 160 158 158 158 157 157 
180 185 182 174 150 113 69 71 85 98 101 114 100 83 90 87 61 53 103 58 129 105 75 36 28 35 32 34 55 53 35 36 123 130 43 23 23 18 78 123 167 196 192 47 33 78 107 114 116 128 141 145 159 172 177 179 182 174 172 166 156 143 140 130 121 121 145 201 224 187 164 156 141 125 119 116 71 34 36 55 32 59 161 137 20 35 36 25 93 145 146 169 165 161 162 158 156 157 157 154 
178 178 180 173 152 115 65 71 87 92 99 103 92 135 94 97 77 102 54 46 106 109 54 43 40 35 36 35 47 41 36 42 112 128 108 24 16 20 124 120 198 209 98 37 30 76 105 111 122 126 136 146 150 160 169 176 179 174 170 160 148 134 133 129 115 121 143 187 223 188 166 154 144 128 119 111 61 28 32 57 30 48 172 150 32 27 46 34 121 142 160 174 163 161 160 157 156 156 153 154 
177 178 181 170 147 115 60 65 117 87 121 144 110 46 107 108 98 40 84 63 122 119 84 43 49 32 25 25 49 59 40 64 145 82 136 62 15 62 120 159 209 166 17 41 33 73 98 113 120 126 134 146 152 159 165 173 171 171 166 158 148 126 124 121 114 117 133 182 222 193 164 150 140 129 121 107 46 30 42 64 29 38 166 145 55 32 35 50 138 141 164 168 163 162 160 157 155 156 154 153 
176 175 179 171 150 114 59 57 119 126 122 122 66 83 112 93 72 63 96 90 129 127 107 39 44 27 17 29 74 83 53 109 166 116 66 36 10 119 113 197 195 39 15 49 44 66 95 115 121 122 128 141 148 155 157 162 166 166 163 157 141 129 122 117 112 111 133 173 218 208 156 152 140 128 122 95 33 32 44 60 33 28 157 154 63 30 26 81 144 146 164 164 161 159 160 159 158 156 155 155 
176 179 180 171 153 114 62 59 83 111 117 128 72 79 88 93 68 79 107 75 102 148 82 25 31 35 28 28 75 67 128 84 86 63 28 19 57 126 149 196 86 18 17 57 56 65 97 111 117 123 128 135 145 147 150 155 161 163 158 150 136 115 115 125 115 110 130 164 213 215 150 148 140 126 119 78 25 31 50 60 35 23 144 154 89 25 29 109 147 150 168 164 162 159 157 158 158 155 155 155 
177 178 181 176 151 115 62 78 123 104 103 105 59 75 105 82 71 67 94 69 93 154 64 62 45 45 28 29 76 94 92 109 49 23 17 70 154 136 149 167 46 20 20 63 64 64 98 111 117 120 129 136 139 145 148 153 155 159 156 145 132 98 125 128 135 116 122 161 208 216 143 144 133 122 113 51 26 35 49 63 32 19 127 160 110 25 37 134 149 156 165 161 161 156 158 156 157 158 155 156 
174 177 180 176 150 119 85 88 81 88 106 101 56 85 119 78 34 122 71 50 101 141 75 108 35 41 51 21 45 33 77 76 22 21 9 141 185 185 184 74 12 23 19 63 69 71 98 112 117 117 128 132 138 144 147 149 152 155 155 149 135 108 124 85 87 106 108 137 195 188 144 142 136 121 88 26 28 38 52 54 30 17 101 165 123 28 53 146 148 164 166 162 161 157 156 158 157 152 156 153 
176 179 179 175 153 119 65 63 82 89 103 84 69 87 101 55 60 113 80 52 116 122 120 118 16 42 74 35 18 49 115 37 39 35 51 152 179 193 93 14 26 24 24 64 83 79 97 110 113 118 124 133 138 145 145 148 150 155 155 151 142 116 114 98 102 93 95 121 182 172 150 138 130 121 55 35 28 43 56 58 28 26 77 165 132 34 95 151 149 164 163 161 157 158 157 157 156 156 153 150 
172 176 180 179 153 121 67 65 84 88 108 95 32 85 60 39 108 60 75 73 111 113 133 136 35 27 111 112 14 63 64 53 96 131 131 108 154 140 20 24 59 30 22 70 91 79 101 108 114 119 120 127 137 140 141 147 148 152 156 153 150 141 129 119 129 129 147 189 188 166 148 139 128 100 32 32 34 44 71 62 34 30 56 165 128 48 123 149 154 164 162 159 157 157 155 155 157 155 153 152 
172 177 180 177 155 119 71 66 82 90 116 117 34 75 71 115 49 44 65 92 105 117 115 133 95 48 87 80 50 36 79 126 153 177 94 123 183 48 39 42 50 42 29 72 98 85 103 113 116 120 123 131 133 134 139 146 149 152 157 155 151 147 143 138 162 185 172 200 193 162 143 135 127 67 38 30 35 52 73 62 42 36 38 166 125 76 137 148 157 162 160 160 157 157 155 155 155 153 155 153 
172 174 182 176 159 119 72 63 76 97 130 98 46 82 112 54 48 47 65 64 75 106 84 134 132 75 90 51 32 50 144 162 188 135 86 155 62 29 29 27 45 44 27 55 103 83 102 111 115 119 123 129 133 131 135 139 145 146 147 153 144 148 146 151 183 202 181 205 192 159 141 132 112 33 33 30 40 53 73 59 44 23 24 156 125 102 144 148 160 160 161 157 158 155 155 156 151 154 153 153 
174 177 179 180 160 120 65 62 78 127 105 92 60 109 72 39 67 64 60 72 61 95 60 124 128 131 48 28 89 101 135 176 169 88 119 97 23 46 36 30 40 55 26 46 102 77 97 107 116 118 125 128 134 131 131 132 136 142 139 146 142 143 151 158 191 209 187 208 192 147 135 133 69 31 37 33 42 58 68 53 47 30 22 151 131 111 144 154 163 162 160 160 154 157 154 156 155 153 152 151 
173 176 184 179 159 120 65 58 121 89 104 86 38 103 57 52 55 59 85 85 79 74 89 60 112 142 38 75 139 187 190 181 102 101 136 26 29 70 29 31 43 68 25 40 93 76 90 108 115 119 121 127 130 134 126 133 130 126 130 135 138 138 143 141 140 155 171 149 157 124 131 124 31 32 42 34 44 61 71 66 51 30 17 134 135 124 145 152 163 164 161 158 154 152 158 156 154 152 152 150 
177 182 181 178 160 118 61 101 98 81 136 75 47 53 55 57 60 46 95 116 102 82 70 99 98 101 96 144 149 206 208 109 94 161 42 30 25 53 22 27 43 63 28 39 83 70 84 102 117 118 118 123 127 133 137 137 83 82 91 100 103 98 93 84 93 109 106 78 104 107 140 74 29 33 32 37 51 53 64 68 36 48 16 114 140 142 148 152 163 162 159 159 157 154 157 154 154 153 152 151 
179 180 184 179 157 116 99 114 66 113 130 71 59 38 44 50 59 66 102 124 96 105 96 97 95 66 109 135 130 218 159 90 146 103 32 35 25 43 33 34 45 52 43 40 74 76 75 100 111 115 115 119 126 132 143 135 120 112 96 98 106 112 121 127 132 153 154 121 134 137 122 31 32 38 31 38 49 57 64 69 37 63 23 94 147 151 149 156 165 160 160 160 160 155 156 155 155 155 152 152 
181 181 184 178 162 130 115 57 78 132 99 74 77 72 27 45 68 72 117 126 60 100 107 81 72 113 138 139 125 184 109 147 144 40 38 39 25 32 32 30 43 49 46 38 65 67 66 93 102 109 113 115 119 129 139 139 134 123 112 111 107 112 141 160 165 166 160 129 144 139 59 25 36 30 24 40 30 69 64 64 43 66 24 92 159 156 152 159 164 164 162 160 160 158 158 156 156 156 152 151 
182 184 186 179 163 127 63 52 123 108 106 45 116 47 30 78 59 80 141 119 88 96 80 123 117 116 161 131 150 151 158 164 50 43 41 48 38 39 38 40 47 52 52 41 69 66 59 83 95 102 106 116 121 125 129 135 136 128 122 116 113 110 116 123 128 121 128 144 143 108 29 31 39 36 33 42 30 69 54 73 48 66 31 86 163 156 157 162 165 162 161 161 160 159 159 158 154 154 152 149 
182 181 185 178 156 119 59 58 134 93 82 40 125 33 28 84 38 71 163 95 131 126 71 102 139 113 118 118 170 167 181 58 40 40 44 44 29 39 36 44 44 50 48 36 56 70 49 65 88 92 99 108 117 121 127 130 135 129 125 123 119 118 110 109 116 127 150 139 130 52 30 24 30 37 48 37 33 78 56 78 48 67 35 81 166 157 152 163 163 162 162 161 162 164 161 159 157 153 153 151 
180 180 182 178 159 123 59 58 124 88 74 58 84 40 28 74 50 59 164 128 122 139 120 93 120 95 115 117 183 196 86 33 38 33 41 43 34 39 37 35 45 43 48 39 44 58 43 58 75 88 97 106 118 119 125 129 131 132 130 133 135 145 153 154 151 154 145 140 74 47 29 30 36 43 45 34 29 80 61 75 58 69 31 71 172 159 154 163 166 165 162 164 160 160 162 159 156 154 152 149 
177 180 180 177 157 121 68 56 103 95 62 87 70 35 34 72 40 52 135 106 122 143 125 96 97 109 125 89 158 123 39 36 41 37 43 43 29 40 35 29 32 41 43 35 41 45 40 56 42 68 86 96 108 120 126 129 133 138 142 152 153 159 171 171 160 157 146 142 27 44 28 35 45 49 40 41 29 90 66 79 57 61 49 70 171 159 155 169 166 165 163 160 161 161 162 158 157 154 152 147 
180 180 180 177 159 122 61 58 97 82 51 68 73 47 36 66 39 64 128 65 63 126 139 135 105 132 134 80 114 78 51 42 38 38 48 47 29 43 32 37 29 37 41 38 42 44 46 56 39 30 58 76 98 114 122 129 134 141 147 158 170 163 165 165 172 162 147 102 26 47 41 41 48 50 30 41 34 99 70 81 65 57 58 66 174 160 157 167 166 161 161 162 160 159 160 158 156 152 150 147 
177 181 182 178 159 121 60 54 99 47 39 75 67 49 50 57 34 42 145 92 60 96 122 138 143 130 153 90 98 55 45 39 41 37 49 50 33 48 38 41 33 33 42 44 43 43 48 48 54 30 26 49 76 97 106 119 123 135 143 149 158 166 171 164 163 151 144 80 33 46 51 48 47 56 40 38 39 101 70 76 72 63 61 69 170 161 150 156 159 156 160 160 160 157 159 156 153 152 148 145 
176 176 180 177 157 115 56 109 120 97 33 79 52 48 55 43 31 30 148 129 82 60 123 104 124 135 163 140 157 98 38 40 41 39 56 52 29 53 34 39 34 33 34 39 48 50 53 40 61 57 39 50 58 67 82 95 113 118 130 141 145 158 164 151 152 137 133 70 38 46 49 47 43 55 40 37 48 100 79 79 75 71 60 81 171 154 127 127 139 143 148 153 157 156 158 155 154 153 147 144 
176 177 176 175 152 109 136 152 63 104 30 71 53 55 51 44 27 29 134 146 95 59 75 95 144 98 164 122 80 158 106 29 32 34 58 54 26 49 32 33 36 35 32 35 47 43 45 35 51 64 79 104 114 123 129 140 132 138 140 153 159 155 162 164 167 175 187 164 113 68 49 48 38 44 34 37 48 97 80 84 74 69 61 90 168 136 117 110 117 122 128 131 138 142 149 152 151 148 150 139 
175 173 176 172 151 162 129 66 79 58 26 64 63 54 42 76 42 39 106 132 139 70 66 137 140 94 116 127 88 107 160 107 36 43 66 47 35 56 37 33 40 31 36 38 42 45 43 39 43 72 96 115 122 119 124 128 130 132 138 146 146 145 144 148 164 182 198 203 205 195 136 73 42 43 35 35 58 98 76 80 71 76 67 101 161 132 125 124 117 117 112 112 114 117 123 130 133 137 140 135 
173 172 173 179 176 139 58 76 128 31 25 38 65 50 30 77 72 59 40 123 110 98 121 161 84 96 110 124 97 161 119 122 72 35 59 37 34 60 35 31 36 39 35 32 39 48 45 43 33 77 99 115 117 120 118 127 131 132 134 139 137 138 142 151 172 184 197 204 205 208 206 202 141 59 23 19 51 89 70 78 69 69 59 110 156 136 140 141 136 128 123 114 107 103 100 104 110 108 113 117 
170 175 174 180 161 119 87 146 64 23 26 26 61 84 20 68 96 93 32 46 123 121 101 111 87 114 107 135 126 138 125 58 127 41 58 35 26 62 36 31 29 44 43 33 42 45 60 42 33 72 97 107 116 117 122 123 130 130 135 136 136 139 147 157 175 189 198 197 202 204 205 207 212 197 97 22 44 81 70 70 60 62 58 115 151 148 151 147 146 140 137 132 124 116 107 99 95 90 104 119 
172 173 174 173 157 128 150 118 30 28 22 23 97 112 69 117 71 77 40 87 59 101 113 60 79 105 124 143 145 120 97 82 86 100 44 37 35 66 38 40 36 44 54 39 40 50 60 51 40 73 99 110 111 120 120 124 130 139 136 130 132 142 152 162 175 186 194 195 198 200 205 208 211 214 213 129 39 60 66 63 63 60 46 126 149 153 154 153 149 145 146 142 138 131 124 115 111 97 120 129 
179 175 177 175 156 166 151 84 43 28 30 31 57 40 86 63 51 67 88 74 35 118 50 60 73 98 110 143 152 157 39 149 75 129 37 31 32 63 39 39 39 42 52 37 41 58 63 76 32 61 100 106 121 112 122 132 129 134 137 130 136 145 156 162 170 180 186 189 195 198 201 205 210 212 216 217 137 49 55 47 67 56 37 138 148 153 157 153 156 150 148 145 144 140 134 131 130 114 129 131 
178 177 178 175 157 171 123 103 23 31 39 48 60 39 55 40 71 44 29 51 38 105 50 65 69 100 95 133 146 130 125 107 141 89 79 34 41 65 47 44 40 48 56 45 42 64 74 95 38 51 107 111 111 120 127 132 134 136 133 136 141 147 159 163 170 173 179 183 189 191 199 204 208 211 214 218 218 113 36 32 55 58 34 149 145 154 157 154 149 150 150 150 147 142 139 136 135 130 131 134 
180 178 181 176 157 163 109 48 23 27 33 56 43 42 29 49 88 60 25 69 41 62 85 53 74 68 110 124 128 142 158 100 104 89 130 22 26 62 41 37 31 38 52 38 28 57 82 106 48 48 94 107 124 123 127 132 135 131 132 137 139 147 152 161 165 170 178 183 186 190 196 201 205 210 213 217 219 215 71 25 40 43 33 154 146 153 156 155 150 152 149 150 148 143 143 139 135 132 138 141 
180 182 182 177 157 143 119 66 25 23 36 64 30 42 36 63 89 52 33 30 72 54 59 88 87 96 77 111 120 131 174 101 25 115 160 20 23 54 49 35 28 39 59 41 34 42 93 111 51 35 95 113 124 127 124 130 133 134 137 136 140 147 151 158 162 167 174 179 185 189 196 199 205 208 212 216 219 224 172 25 37 31 41 156 147 156 154 152 149 150 149 148 146 144 143 140 137 129 136 154 
182 180 182 178 163 126 125 50 32 28 50 37 31 34 28 76 83 52 40 26 39 80 68 61 86 120 94 86 118 156 162 61 46 134 162 21 27 51 64 34 30 40 49 35 35 51 96 96 64 37 102 114 119 121 127 127 130 135 134 137 145 143 149 154 160 165 171 176 182 187 194 197 204 208 213 215 218 222 223 73 21 18 58 154 148 156 155 154 152 151 148 146 142 144 143 136 132 127 157 189 
182 181 182 180 164 137 139 44 32 42 40 37 30 38 30 118 74 29 52 43 37 41 44 64 80 107 94 76 119 149 156 94 28 130 128 22 41 54 65 41 35 40 50 26 34 68 93 105 66 46 95 119 122 123 129 130 130 129 134 135 140 141 147 155 157 163 171 175 180 188 190 195 201 208 210 215 215 221 225 160 13 10 78 151 150 156 158 154 152 149 149 145 141 142 139 135 129 149 196 207 
184 182 185 180 164 138 112 37 31 44 27 31 30 21 49 143 68 27 43 47 38 36 36 43 68 98 102 54 113 145 158 120 89 155 135 61 43 54 54 37 39 34 39 41 44 81 109 115 72 51 97 122 124 127 130 128 128 131 128 135 141 141 145 152 157 161 166 171 179 182 192 196 202 209 212 213 216 219 222 216 36 5 91 145 159 155 155 151 153 149 148 145 140 138 137 135 125 183 219 218 
181 182 183 181 164 136 89 42 41 24 28 26 30 40 103 94 51 27 42 53 32 23 48 30 62 77 119 86 125 154 142 132 141 152 79 46 48 37 46 40 43 41 33 44 59 108 118 115 59 67 98 117 121 128 132 130 129 129 133 132 138 140 146 149 156 159 163 168 177 183 188 197 202 206 209 211 217 217 219 223 95 9 106 146 158 153 154 153 150 149 150 146 141 142 133 128 128 201 222 218 
179 178 178 178 161 137 104 47 29 28 31 32 53 58 36 84 69 33 49 49 28 25 52 31 73 40 64 132 140 146 101 105 148 159 107 88 66 49 43 60 37 41 29 48 73 111 118 118 50 71 104 120 124 128 134 135 128 128 127 132 134 137 142 145 154 159 162 167 174 179 189 196 199 205 210 210 214 218 219 224 157 7 116 147 159 153 150 150 148 147 149 148 144 141 136 130 139 206 220 213 
180 180 181 180 162 144 99 47 30 33 31 32 39 42 34 74 59 40 44 46 32 28 50 46 73 38 38 118 131 127 120 51 62 33 63 72 97 122 105 61 36 35 36 61 90 115 120 117 50 82 111 122 127 127 132 132 130 130 127 131 132 138 139 146 152 156 159 165 172 176 187 193 198 204 208 210 213 217 219 219 207 19 129 148 157 157 151 154 147 148 148 149 145 139 135 132 146 209 220 210 
181 184 181 181 166 148 88 37 39 25 32 31 44 53 35 58 51 45 31 52 38 25 39 56 76 56 79 100 125 117 124 129 55 46 32 43 45 52 49 73 41 24 45 74 99 118 122 107 54 92 121 125 129 130 134 136 135 128 130 130 134 136 138 144 149 155 157 164 171 175 182 191 199 202 204 210 212 215 218 216 220 68 134 149 161 155 150 152 149 150 150 148 145 139 138 136 141 195 213 206 
180 181 180 179 164 151 108 52 32 22 36 62 62 34 34 55 47 42 45 41 51 36 50 68 59 78 73 129 128 123 68 119 115 89 37 46 33 51 37 34 34 31 60 82 103 117 121 91 54 101 122 128 133 133 135 132 132 130 129 132 130 133 138 145 146 151 154 161 167 171 177 187 195 201 204 208 210 213 216 215 218 138 134 144 151 150 153 154 155 152 151 151 147 142 141 143 140 153 179 196 
179 179 181 179 164 140 115 69 34 31 57 48 34 32 43 55 45 55 52 42 52 30 67 45 37 105 47 55 85 130 49 75 150 159 31 35 32 40 34 29 28 33 66 97 110 121 115 61 70 111 126 130 133 136 141 136 133 135 131 127 132 136 135 142 147 150 152 157 163 167 178 186 192 199 203 207 211 214 214 217 217 192 140 116 115 125 134 144 151 153 156 153 150 146 150 152 147 140 142 195 
178 181 180 181 164 132 109 69 34 30 38 38 31 40 51 53 45 77 34 32 39 20 61 40 43 119 95 52 28 91 51 93 92 95 31 32 31 34 25 21 36 49 81 105 111 119 105 40 86 126 128 129 132 136 138 139 135 135 132 131 130 135 138 142 146 149 153 155 163 167 174 179 190 196 200 207 211 213 217 217 217 219 126 75 75 82 98 109 123 134 139 145 146 151 156 159 145 137 150 206 
175 181 180 182 165 135 107 80 29 38 32 29 32 54 42 51 44 61 42 30 30 33 35 57 92 107 144 68 56 56 57 108 69 51 32 23 33 29 26 23 45 70 97 112 108 113 59 55 105 125 128 128 135 136 139 131 136 132 131 131 131 131 133 137 141 146 150 155 160 168 173 178 185 194 199 205 210 211 215 216 218 222 129 72 76 69 69 71 82 88 95 109 119 138 157 164 152 143 165 217 
177 181 180 183 168 121 106 84 28 34 28 24 51 48 42 46 45 60 54 44 30 41 42 30 40 85 127 149 91 103 106 43 31 37 34 31 25 22 22 30 53 81 106 110 112 84 26 85 121 130 128 130 134 135 135 136 139 135 131 133 128 130 134 136 141 145 149 152 159 162 169 173 183 191 197 204 208 212 214 215 217 220 169 74 95 89 84 73 61 54 49 51 53 83 118 154 187 167 188 219 
177 180 181 185 171 112 115 52 32 32 33 40 39 43 37 43 50 54 47 45 43 26 38 38 38 40 97 155 139 96 103 76 23 33 27 29 27 20 24 40 68 94 104 111 100 32 52 112 124 132 130 129 132 132 134 139 137 137 134 132 131 128 135 133 137 142 147 152 154 160 164 172 182 187 194 202 206 210 213 215 216 219 209 85 99 104 99 90 76 65 48 32 23 29 84 192 206 171 199 218 
178 181 181 187 173 109 119 56 30 40 48 36 31 40 37 39 53 56 50 47 33 33 30 43 56 35 39 102 156 127 100 103 31 31 24 25 17 25 27 63 82 105 108 109 39 39 95 123 125 128 131 135 133 132 132 137 138 137 138 133 135 131 132 134 132 138 143 147 156 156 162 171 174 183 194 200 205 209 212 213 216 217 220 111 94 107 110 98 92 85 67 46 29 21 87 205 204 173 207 212 
178 182 183 186 175 103 111 55 32 31 34 31 35 48 36 34 36 62 44 57 43 29 55 41 59 41 68 56 95 111 128 39 32 30 25 26 18 31 50 71 94 111 95 34 33 86 118 122 123 128 130 134 133 132 132 134 141 135 140 136 134 132 132 136 136 137 142 147 149 156 163 167 169 181 189 195 202 207 211 212 216 213 219 152 86 103 110 106 96 91 80 66 50 41 83 194 208 200 197 160 
177 180 185 187 171 104 113 38 31 39 37 43 34 48 35 32 53 79 43 77 54 31 52 74 47 66 64 69 122 93 66 53 28 31 26 18 23 41 68 88 80 60 28 52 91 108 119 123 125 128 132 132 135 133 134 137 136 138 140 137 137 135 133 135 133 136 139 145 147 153 160 163 171 172 182 191 197 203 209 212 214 214 219 194 79 97 105 105 100 98 94 80 76 78 103 193 216 193 129 75 
180 183 184 185 172 106 98 30 31 41 37 50 34 46 47 33 58 87 36 81 95 39 37 68 39 98 51 62 106 142 58 47 22 33 28 27 26 42 49 35 40 56 81 98 112 117 118 124 126 129 132 129 135 131 135 136 139 143 142 142 140 139 136 134 136 136 139 143 149 151 156 161 167 176 182 188 196 201 206 211 214 215 218 215 94 90 100 105 106 104 100 93 100 95 101 176 190 126 77 66 
176 182 184 188 171 112 59 30 35 35 38 56 38 55 53 36 52 80 31 85 118 66 43 92 35 55 95 54 117 120 107 41 30 35 31 23 22 35 47 66 78 95 110 113 118 122 121 122 123 127 129 132 128 131 135 135 136 139 142 143 139 140 138 134 136 138 138 141 146 150 157 158 166 172 182 189 194 198 203 209 212 215 218 218 125 80 96 103 109 114 107 112 116 110 106 121 114 83 75 79 
177 183 185 186 175 102 54 45 35 33 34 56 45 47 70 32 47 75 23 77 93 100 23 93 83 29 89 64 86 118 89 48 26 33 28 25 41 69 86 101 105 111 115 117 119 123 122 121 122 126 132 128 129 135 133 134 134 135 140 142 139 142 140 142 140 140 139 142 147 149 154 156 163 169 175 183 188 194 202 205 211 215 215 219 165 72 89 102 110 116 118 121 120 111 111 102 97 88 99 95 
178 183 185 186 164 81 46 40 39 30 39 48 48 53 69 34 58 90 35 78 71 138 55 58 96 38 53 106 38 90 87 50 25 29 29 40 72 88 102 108 108 110 117 116 121 118 124 126 121 124 128 129 130 131 131 135 133 134 140 139 142 142 144 143 142 143 143 145 148 149 151 156 166 170 176 183 187 192 199 206 208 212 215 216 201 71 85 101 111 112 122 123 118 111 112 104 99 105 113 98 
178 182 181 186 164 108 42 35 32 41 52 44 58 66 45 61 83 71 33 91 71 100 98 26 110 51 45 78 52 66 99 110 34 17 34 65 79 95 104 105 111 113 118 120 119 121 124 124 123 124 129 131 130 130 134 134 131 137 139 141 141 143 141 144 146 145 144 142 149 153 153 157 165 167 171 178 186 193 198 203 207 210 214 216 215 93 81 97 102 111 122 124 124 116 110 110 112 120 115 95 
