P2
50
63
255
173 165 120 86 97 100 100 100 109 119 123 127 128 126 128 130 129 129 129 131 130 130 128 130 127 130 128 130 127 126 125 124 123 117 103 122 153 160 153 155 155 155 155 158 159 191 221 183 103 117 
172 160 116 81 92 98 96 98 108 117 121 124 126 126 125 128 128 128 127 128 126 127 124 127 125 128 125 126 126 124 124 124 122 117 106 105 141 159 158 161 159 156 156 155 155 162 214 218 128 110 
167 157 117 81 92 97 96 96 107 115 120 124 125 127 126 126 128 126 126 126 126 126 125 127 125 131 128 126 124 124 121 124 123 120 110 101 128 155 164 163 164 160 155 155 153 153 183 221 192 106 
160 158 114 77 92 97 96 96 106 116 120 122 122 123 124 125 124 123 126 127 119 117 122 120 122 124 126 126 122 124 120 121 122 119 111 102 124 153 162 162 161 160 157 155 155 152 152 210 223 147 
161 158 113 78 90 96 93 95 106 114 117 121 122 120 123 122 123 125 123 122 118 116 119 117 118 121 125 125 122 123 121 120 121 117 111 102 118 145 157 159 160 158 157 157 156 153 146 172 223 212 
161 157 111 75 91 95 94 95 105 114 117 118 120 121 121 120 123 123 121 122 121 124 134 139 133 120 119 120 121 124 121 121 120 115 109 103 116 140 149 156 156 155 155 155 152 148 143 144 205 226 
163 159 113 74 86 94 95 96 106 114 117 120 120 121 121 120 122 120 127 146 151 165 177 187 186 190 170 134 115 122 121 119 118 113 107 102 115 140 143 150 155 153 152 149 146 141 140 140 162 221 
166 158 112 68 83 88 91 96 105 111 115 116 118 118 121 126 137 125 137 141 150 157 170 180 187 193 198 203 167 118 115 116 115 108 104 97 114 140 144 146 149 150 144 144 143 139 138 139 138 192 
166 157 109 63 80 89 90 95 100 107 111 115 117 115 124 112 118 121 132 134 138 148 165 181 189 193 198 199 204 192 126 102 107 107 101 95 112 143 147 142 139 145 142 140 142 140 139 142 143 154 
167 155 109 63 84 91 91 92 101 107 110 112 115 123 110 104 112 123 127 134 136 144 156 174 190 195 199 202 202 205 210 165 92 100 96 93 111 147 153 144 117 124 145 141 142 139 141 144 146 146 
169 156 107 66 81 89 93 94 102 107 111 114 116 113 102 111 115 116 123 132 135 140 150 172 192 195 191 200 210 216 216 224 153 83 91 88 110 146 152 146 100 74 134 142 141 139 141 142 149 72 
168 156 106 66 85 88 92 93 100 108 112 114 115 101 105 112 109 116 126 137 139 144 147 167 179 185 205 213 211 210 214 217 225 113 77 83 108 146 153 147 107 32 105 143 141 139 140 144 110 32 
167 156 109 65 83 90 90 94 100 109 112 119 105 106 107 110 115 126 133 137 141 136 143 158 182 205 207 207 205 210 211 215 217 218 130 65 105 146 153 150 106 28 59 125 143 137 142 139 35 24 
165 158 109 66 82 89 91 91 101 107 107 132 94 103 106 111 119 132 137 137 135 125 146 187 200 198 198 203 210 211 212 213 213 219 223 85 97 144 153 149 108 30 21 79 138 141 144 72 26 34 
165 157 110 63 78 85 88 94 98 103 122 130 95 103 104 114 125 134 132 132 118 151 189 188 191 190 202 203 207 207 210 210 215 215 222 177 85 143 151 150 109 30 21 108 207 216 196 27 35 40 
168 156 107 59 77 89 90 90 97 105 156 116 95 103 107 121 119 121 127 114 163 178 176 183 186 197 197 198 200 205 207 208 210 213 213 222 118 143 154 150 102 29 145 200 218 221 228 57 33 36 
169 162 111 65 82 90 92 93 101 101 174 107 93 99 112 114 119 125 116 156 164 170 180 187 189 188 184 193 199 202 204 201 199 208 210 212 207 152 152 143 117 182 204 216 212 213 227 62 38 31 
171 166 113 63 83 91 91 90 98 92 182 110 95 93 104 113 115 119 149 150 150 170 180 176 184 177 184 188 189 196 196 189 198 205 203 203 202 187 154 185 203 209 213 210 210 218 223 42 36 28 
175 169 113 63 81 89 88 89 93 100 194 124 100 96 104 114 116 144 143 140 155 161 174 174 172 179 181 179 187 188 189 195 198 193 191 193 186 199 199 206 210 208 207 211 202 216 193 25 35 28 
174 167 114 67 83 89 88 88 93 109 189 146 116 91 105 109 137 137 133 150 147 151 163 172 173 174 175 173 172 179 187 190 185 185 176 183 195 201 207 206 206 207 211 198 175 191 124 31 34 27 
173 166 117 65 83 88 86 89 90 113 187 154 128 97 103 135 127 127 141 139 146 149 159 161 163 167 166 166 169 172 173 173 173 170 184 194 204 203 201 204 208 209 212 172 161 187 52 33 31 34 
175 169 119 62 82 86 87 86 85 117 199 166 147 105 124 126 124 137 132 134 141 147 133 126 130 141 140 157 157 157 139 155 168 188 199 203 198 203 206 209 210 214 191 130 122 168 22 33 39 45 
176 169 118 61 80 88 88 87 84 108 204 176 135 113 115 116 134 126 128 130 138 129 119 102 88 140 99 90 80 46 51 142 184 201 201 203 202 207 207 212 199 151 98 101 183 71 31 28 33 85 
175 169 118 63 81 86 89 88 84 81 208 182 128 127 107 130 124 125 128 133 118 115 96 65 55 102 81 84 58 41 135 178 196 201 198 200 201 206 200 161 89 98 135 182 68 28 30 35 42 132 
174 169 121 63 79 86 88 87 88 79 177 194 153 116 126 119 119 121 125 121 94 65 52 31 78 56 90 53 81 141 186 191 191 191 194 198 202 145 104 130 158 171 183 72 31 39 29 35 70 148 
174 170 121 60 78 86 86 85 92 94 116 202 173 115 120 119 121 122 115 71 73 44 66 36 52 44 61 97 129 189 197 189 188 186 193 195 167 75 108 128 163 169 61 26 36 40 28 40 111 147 
175 172 122 59 76 86 85 87 94 102 85 192 179 120 112 117 121 114 75 53 72 40 70 44 34 44 72 114 170 190 185 184 184 186 196 198 195 100 78 115 150 43 26 38 42 30 32 58 131 157 
175 171 124 59 81 87 88 88 95 105 93 183 148 108 113 118 116 55 50 30 60 58 57 78 27 56 119 157 190 189 173 182 175 194 203 203 204 128 38 85 145 30 29 40 46 27 31 100 141 160 
176 172 126 64 80 91 93 90 106 108 104 148 133 108 119 101 53 41 44 40 36 48 74 70 41 135 177 167 188 181 169 162 184 198 205 209 212 164 43 40 147 40 40 46 42 31 37 134 156 163 
177 172 126 67 84 92 94 92 102 108 108 113 126 121 120 55 50 30 55 43 41 40 55 57 122 164 189 174 186 164 160 173 185 199 203 208 213 188 67 29 132 45 43 50 35 35 73 144 168 170 
178 174 125 65 81 92 93 92 101 110 125 100 106 125 80 57 65 30 56 29 42 51 46 98 164 173 190 180 121 133 159 179 179 192 197 203 209 188 65 20 120 63 51 52 33 34 116 146 169 168 
177 175 128 66 82 93 90 90 98 114 143 92 94 80 69 60 73 39 51 33 37 54 73 156 192 177 172 124 127 103 78 124 167 184 193 186 136 98 68 27 103 78 53 43 36 47 135 156 166 162 
179 174 129 61 78 89 86 81 132 147 150 118 48 67 83 92 40 59 23 70 30 31 140 183 202 149 48 36 42 56 72 119 143 181 199 102 58 37 42 25 95 93 54 32 36 69 143 165 162 160 
181 177 127 65 83 90 91 68 131 167 111 47 61 57 64 94 29 47 37 29 30 87 167 198 177 88 43 73 92 195 88 106 132 188 156 62 106 87 26 26 90 106 56 34 33 109 151 162 161 158 
183 179 131 72 90 100 73 104 151 123 61 78 45 72 91 113 48 25 31 27 47 147 188 173 117 131 119 113 145 167 138 112 126 197 161 128 133 67 40 36 83 121 52 32 45 134 158 161 158 158 
183 181 134 69 88 98 129 118 76 41 63 111 52 60 98 110 58 28 31 27 105 179 175 92 128 148 152 149 151 162 149 125 119 191 194 147 119 98 52 34 73 129 45 34 63 141 163 159 156 158 
181 180 134 68 89 117 130 106 69 65 106 91 28 55 92 86 94 34 29 68 147 191 66 105 126 149 168 175 175 173 149 132 118 178 202 160 130 115 58 41 60 138 33 30 95 147 164 158 158 158 
180 177 132 69 90 104 102 92 73 65 112 52 34 34 49 37 123 49 19 111 192 93 54 109 123 142 160 175 177 167 145 133 119 169 205 160 134 116 48 45 42 155 28 35 125 162 162 159 156 154 
176 175 131 60 112 127 76 105 68 83 124 68 38 24 66 66 127 75 51 147 152 30 54 105 122 137 153 164 168 161 136 121 113 155 210 155 134 111 35 52 32 155 45 48 142 165 161 159 156 154 
177 177 133 65 105 113 71 92 71 86 124 58 39 28 78 103 55 33 118 165 42 39 62 104 119 132 144 151 159 152 120 123 119 144 213 146 130 90 29 55 27 146 62 77 150 164 159 157 157 155 
176 177 135 75 85 98 74 88 82 63 120 105 33 45 36 76 29 88 185 91 21 42 75 104 116 129 141 147 153 152 125 105 97 115 184 143 127 51 34 55 25 127 79 111 156 163 158 157 155 153 
174 179 137 67 86 109 56 71 65 76 111 129 51 97 40 80 139 114 131 31 45 48 88 106 117 125 136 143 150 155 147 132 151 177 177 141 105 33 41 67 35 106 94 139 159 160 157 155 155 153 
174 179 139 65 94 106 74 69 56 65 84 100 116 54 68 154 145 114 40 30 46 38 91 104 117 126 132 134 142 146 144 151 196 195 172 135 61 33 48 63 36 88 117 147 161 159 156 155 153 152 
177 180 139 71 97 100 60 55 55 95 84 79 113 88 170 172 114 58 44 27 54 33 80 96 117 122 131 133 105 114 119 115 124 126 123 117 31 36 52 67 41 70 135 149 163 159 154 156 153 151 
180 181 141 96 97 93 61 41 66 117 90 95 86 130 164 126 108 36 31 32 47 41 70 83 109 115 126 139 122 104 109 137 154 141 138 59 34 33 51 65 52 58 153 154 163 160 158 156 155 151 
182 182 141 58 114 68 80 55 62 129 110 94 121 132 159 140 43 44 36 39 48 44 65 64 94 107 121 130 132 121 115 114 123 140 108 28 35 40 52 65 57 58 160 158 163 161 161 159 154 151 
179 179 140 60 102 70 57 52 50 133 131 108 105 111 165 48 37 42 35 34 40 41 47 49 68 96 116 127 133 139 148 162 155 143 48 30 43 40 57 70 61 55 165 160 165 162 160 160 155 150 
179 179 140 58 81 58 59 52 44 107 86 133 127 114 86 44 38 48 38 37 33 41 43 49 38 52 96 119 133 149 164 166 162 118 38 45 50 37 68 74 64 63 166 157 160 160 159 158 153 147 
176 177 133 113 96 53 52 48 29 139 74 99 125 147 123 53 36 55 39 34 34 35 47 43 58 68 90 111 125 141 154 160 157 138 66 48 45 37 73 80 72 73 157 120 130 140 148 153 151 145 
173 175 157 82 74 38 58 56 53 100 104 121 103 119 113 127 46 52 46 34 36 35 43 42 56 106 119 124 131 139 141 146 175 200 203 154 71 28 74 76 71 84 146 132 124 115 110 114 122 126 
172 175 141 125 36 24 88 68 84 51 101 96 96 127 132 90 88 43 47 36 38 42 44 53 54 103 116 122 132 134 137 154 181 196 201 206 208 115 56 67 61 86 150 151 145 139 127 111 98 118 
177 176 162 115 31 37 49 61 58 60 74 56 85 120 146 105 108 45 50 42 42 47 51 77 45 106 116 128 133 134 142 160 173 184 193 202 210 216 129 42 59 89 150 155 151 148 143 135 127 131 
180 179 155 85 24 47 39 44 72 39 57 71 81 105 130 133 83 83 41 40 34 47 40 98 45 102 124 128 133 135 143 155 166 178 187 198 207 214 219 73 37 96 150 154 150 149 145 141 133 142 
181 180 147 89 33 41 33 63 59 40 49 59 98 87 135 118 84 83 43 51 36 40 47 97 53 107 121 128 131 135 142 151 161 173 184 194 205 213 219 170 15 110 152 155 151 147 142 138 134 187 
182 182 150 70 35 28 30 97 43 46 32 39 76 90 134 138 134 80 45 44 39 39 73 114 62 108 125 130 129 132 140 148 158 167 180 193 204 211 217 220 36 122 156 153 150 147 140 133 159 219 
179 179 151 74 30 31 48 57 50 47 28 44 56 88 136 94 100 82 83 67 37 43 97 118 63 114 126 133 129 129 135 143 155 163 175 191 201 209 215 220 97 135 156 151 147 148 142 133 175 215 
181 180 157 71 29 40 48 45 46 42 37 53 67 95 123 110 76 39 45 48 32 65 109 110 75 124 131 134 131 130 133 141 150 159 171 184 199 206 212 216 161 140 154 152 151 150 143 139 157 198 
179 180 150 90 32 45 34 50 55 40 35 53 76 62 83 67 124 32 34 27 36 87 115 80 98 128 134 138 134 130 133 139 148 154 165 179 194 204 212 216 211 114 99 121 140 148 148 154 142 173 
178 181 147 94 32 28 46 45 52 42 33 41 81 122 76 78 47 30 27 25 62 106 104 56 120 128 135 135 135 131 130 135 143 151 162 173 188 201 210 215 219 111 82 74 71 76 98 148 162 197 
179 183 141 85 33 39 38 39 53 47 33 37 42 98 129 95 29 26 22 38 87 108 52 95 127 131 132 135 137 134 131 133 137 147 156 167 181 197 207 213 217 156 101 99 79 48 25 142 188 209 
179 185 138 79 33 36 41 34 57 55 39 55 53 64 105 71 30 23 28 69 86 52 79 120 126 132 133 134 137 138 134 134 135 143 151 163 173 189 202 211 214 196 91 106 96 80 61 143 204 140 
180 185 140 54 35 45 43 42 69 58 79 60 56 65 121 63 30 27 31 49 67 100 117 121 126 130 131 135 139 142 139 135 136 140 149 158 170 185 197 207 214 217 97 101 108 103 105 126 128 74 
180 185 130 46 34 44 48 51 67 53 100 57 61 78 83 68 28 30 67 99 108 116 120 123 123 129 131 133 134 140 141 142 141 142 148 154 167 179 190 203 211 216 127 94 112 121 115 107 97 101 
