P2
25
31
255
167 100 96 98 113 123 126 127 128 128 128 127 127 127 125 124 119 109 153 156 156 156 166 209 114 
160 97 94 96 111 121 124 125 125 126 122 123 125 126 123 121 121 106 140 162 161 155 153 191 167 
159 94 93 94 109 118 120 121 123 122 119 127 123 122 122 120 118 106 129 155 157 156 152 151 216 
161 91 87 94 109 117 119 122 126 137 155 178 189 176 130 117 113 102 127 145 151 147 142 139 178 
161 86 86 92 103 112 117 112 118 131 141 169 191 199 200 150 101 96 128 146 131 142 140 141 147 
162 86 85 93 104 112 111 107 114 129 139 159 187 202 211 217 143 84 127 149 78 131 140 141 90 
161 87 86 91 104 117 102 108 123 136 134 158 196 203 209 212 216 125 123 151 68 71 139 124 29 
161 84 82 90 100 131 99 111 124 126 152 184 191 200 204 208 213 208 122 151 67 118 215 127 36 
167 88 86 91 98 143 95 110 119 142 163 180 184 187 196 197 202 207 187 158 177 210 213 138 33 
171 89 85 88 98 163 100 108 133 141 153 170 174 177 181 190 190 185 195 204 207 206 196 93 31 
170 90 84 87 101 176 119 122 128 136 145 144 150 157 163 160 174 195 202 205 210 176 159 35 37 
172 90 83 88 89 192 125 117 127 129 125 95 96 88 56 126 195 200 204 195 134 129 87 31 73 
171 91 82 86 88 172 139 121 120 108 69 46 57 75 135 190 189 195 147 117 165 85 36 33 119 
173 91 82 87 99 138 138 115 101 52 57 62 40 115 184 181 184 200 156 79 92 33 36 55 147 
174 95 86 92 106 118 122 98 43 45 41 64 115 176 179 166 191 206 194 44 91 44 35 97 164 
176 96 87 91 105 115 101 66 51 42 46 93 176 166 121 135 180 194 157 45 91 49 37 138 166 
177 95 85 81 144 106 58 83 43 39 44 172 154 50 96 96 161 129 72 29 96 44 61 155 160 
181 101 94 106 97 78 57 103 39 29 119 157 131 133 156 131 158 157 104 40 101 40 95 160 157 
179 100 100 107 68 90 37 66 75 56 155 83 135 169 173 139 146 181 123 48 98 31 132 160 156 
176 97 114 86 77 93 32 78 72 120 65 81 127 153 160 125 132 181 116 42 90 58 155 159 155 
176 103 94 72 71 116 56 58 92 109 39 93 121 141 152 127 135 161 79 49 73 105 159 156 154 
177 103 99 64 67 86 92 141 107 35 42 92 120 132 126 132 160 136 40 57 58 137 160 155 152 
181 109 93 59 93 97 117 147 57 34 45 70 106 129 119 118 139 83 35 58 56 156 161 158 152 
179 99 77 55 83 114 114 85 41 36 38 47 63 114 138 160 144 40 42 67 60 162 161 159 151 
175 121 65 53 80 99 123 104 47 38 35 43 72 111 134 150 167 117 45 75 75 138 127 131 136 
175 135 32 66 63 81 107 118 71 43 42 56 77 120 133 148 183 200 187 73 73 151 145 129 118 
180 119 36 44 52 59 92 129 83 43 39 70 76 125 133 147 169 190 209 170 64 152 149 141 149 
180 111 31 58 46 35 77 125 99 59 39 100 86 128 129 141 160 184 206 218 97 154 148 137 192 
180 117 36 44 45 44 75 95 67 38 55 103 106 134 131 136 152 174 200 214 156 131 147 146 167 
180 116 33 42 48 36 85 94 33 28 90 76 126 134 134 132 144 164 191 211 175 89 68 103 189 
182 102 37 40 59 58 59 90 27 44 76 109 128 133 139 135 138 155 179 204 210 98 96 108 136 
