P3
40
35
255
 41  39  44  62  57  67  64  55  63  70  68  81  92  94 101 110  87  87  56  50  51  63 102 104 161 186 171 184 212 184 181 213 184 169 196 156 160 201 186 143 161 142 142 166 151 143 172 155 156 186 166 179 184 167 174 178 161 173 183 164 181 187 169 160 179 158 161 175 160 154 176 155 139 175 154 188 216 190 180 164 169 127 136 142 129 119 120 120 101 102 125 127 133  81  67  69  83 103 115 145 163 157 115  82  87  84  90  95 141 127 133 156 160 170 135 140 130 166 184 163 
144 186 184 173 205 153 111 199 139 112 196 134  97 188 117 138 172 165  83 132 128 150 204 209 178 192 120  53 173  90  59 170  93  47 182 102 146 130 132 108 185 169 166 203 176 162 198 185 186 212 204 122 176 110  93 188 124 102 187 125 115 193 166 172 199 193 141 192 148 150 206 181 161 213 204 183 181 113  75 192 149 141 176 160 158 151 150 150 142 152 184 173 181 170 172 154 125 190 114  95 159 140  89  68  75  98 111 116 122 151 155 199 171 172 120 160 155 136 188 182 
141  95  93  88 168 159 105 174  96  73 181 106  75 177 105  78 187 134 150 171 178 179 210 190 100 175  93  69 177 103  71 174  97  71 195 155 146 189 125  61 171  92  54 172  90  53 168  89  65 192 158 166 178 117  52 173  98  61 182 107 139 128 132  53 124 132 169 181 123  46 172  85  49 193 147 122 174  92  60 175  97  59 174  87  50 193 129 169 202 159  79 176  94  48 174  85  60 175  85  96 165 147 122 127 133 176 137 148 176 211 198  93 181 127 165 175 176 139 187 183 
154 178 177 163 202 198 116 174  97  72 180 105  72 178 105  75 177 100  67 191 134 114 180 101  62 179 103  71 178 105  61 184 116 162 194 145  53 176  97  62 182 104  97 194 132  66 170  92  64 167  86  90 203 162  88 169  90  65 171 101  55 183 110 135 219 210 184 182 118  53 171  91 107 205 173 128 184 149 118 179 115  64 179  98  69 178  97  63 184 114 141 193 144  61 177  93  67 179  98  57 188 125 147 141 146 143 192 179 124 174  90  52 172  84 100 202 192 160 185 178 
148 187 188 170 202 201 122 178 100  71 180 106  71 178 105  73 180 106  74 180 105  70 177 101  70 177 102  71 174  99  76 200 172 142 175  98  58 179 103 113 144 141  80  73  83 147 195 152  60 173  91  63 188 138 119 173 102  56 172  98  68 172  98  52 170  93  67 173 100  65 171  97  57 197 146 133  62  69 125 195 139  58 178  97  62 177 102 129 204 172  95 201 158 167 184 113  53 180  99  69 176  89  99 205 174 116 175  86  57 177  96  65 177  97  55 176  91 127 188 183 
180 186 183 157 202 202 137 180 105  69 179 106  74 180 106  71 180 103  74 179 106  72 176 103  70 176 102  64 172  96  84 210 177 131 169  96  57 189 116 138 104 112 103 192 193 190 207 173  70 168  89  62 184 134 125 173 103  60 171  98  59 169  91  66 173  98  67 173  98  66 172  97  66 191 140 109 108 118 139 186 109  59 176  98  58 197 141 123  78  86 137 141 134 125 184 167  98 173  87  70 178  99  61 175  92  63 176  98  65 176  96  52 179  98 118 197 162 137 170 152 
 95 188 186 156 196 195 147 182 108  66 179 106  72 178 105 111 194 146  70 174  95  72 176 102  55 191 131 143 182 123  51 189 143 155 177 113  54 172  96  68 193 134 140 193 157  97 170  96  58 169  89  81 202 162 105 168  90  56 177 109 163 206 180  87 171  89  59 174  98  66 169  94  71 179 141 121 143 128  93 174  89  66 170  89  73 182 153  87 100 100 133 138 136  92 173 177 170 189 124  54 178  97  68 177  98  67 179  90  62 196 139 173 150 151  66  35  35  48  59  59 
150 193 191 157 197 199 156 185 115  67 181 106  74 178  99 129 189 189 180 201 159  65 176 100 139 172 183 167 193 134  60 173  93 110 206 183 108 167  91  56 173  96  60 170  93  61 169  89  53 185 137 150 181 121  57 174 102  53 192 126 127  73  76 104 178 165 110 178  99  55 167  91  77 180 157 162 176 131  66 172  94  65 172  85 114 150 142  76 149 144 153 180 177 136 196 198 159 185 111  58 179  98  69 179  97  54 195 136 163  92 102  38  59  55 111 187 184 154 199 197 
153 190 189 158 199 201 158 183 112  69 181 106  73 174  97 125 146 141  77 159 156 200 195 195  95  55  61 153 207 161  64 176 100  63 172  96 117 208 189 160 178 146 107 190 138 120 183 165 187 209 183  94 172 104  79 185 135 119 194 145 150 179 178 155 164 171 119 147 143 123 176  99  62 205 179 145 172  91  47 168  89  52 182 106 142 104 109  78 179 176 158 180 179 143 198 197 121 174  89  66 179  97  67 173  87  97 176 154  75  95  94 147 201 200 146 181 178 146 184 183 
156 187 186 150 202 202 156 180 112  70 176  97  70 179 113 128 203 191 172 202 186 180 166 165 132 192 198 176 187 124  62 182 109  78 189 119  76 192 121 153 205 197 164 129 131 110 123 117 149 193 185 180 209 187 159 188 135  93 184 162 171 187 147  92 186 135 151 195 180 152 174 166 172 193 185 124 114 110 131 184 159 130 191 130 120 193 183 156 176 181 164 183 188 168 201 178  76 169  86  66 178  97  66 186 101 126 110 111  86 181 178 159 186 183 153 188 186 155 187 185 
156 180 180 166 207 197 123 185 125 127 202 170 140 191 136  87 176 101  61 175  95  59 177  97  87 205 162 178 153 148 118 111 117  98  92  94  88  81  83 128 189 158  79 175  95  66 178  97  56 172  92  54 169  95  63 170  94  73 174 143 164 186 147  75 171  96  61 165  83  77 191 158 175 191 181 136 175 153 133 112 120  92  83  92  88  42  42  73 192 191 154 182 136 150 207 178 137 187 136  89 180 117  66 194 132 128  78  81 120 201 199 154 184 185 155 186 184 153 188 187 
166 198 200 182 209 204 177 198 150  97 178 100  67 178 106  67 173  97  63 177  99  73 181 108  70 172  87  99 199 182 165 194 174 147 170 168 153 201 200 198 210 179  85 169  85  58 174  98  70 175 103  70 174  96  76 197 140 107 193 142 160 189 131  57 176 103  58 192 132 137  58  66  56 162 162 129 169  88  57 178  97 100 203 156 174 198 202 134 180 188 170 185 121  42 173  88  67 182 109  99 192 133 146 217 189 156 170 165 175 192 197 142 180 178 149 185 183 156 190 189 
158 203 163 111 178 108  67 181 111  83 178 107  78 181 121 131 177 159 146 183 157  89 181 100 111 206 177 131 176 108  63 185 135 158 169 173 174 204 188 125 197 153 143 206 171 182 206 177  85 172  94  69 173  96 111 138 130 101 173 165 129 175  97  67 176 103  65 183 126 144 195 181 206 211 182  72 169  95 135 209 178 140 185 134 104 176 120 122 210 185 170 180 122  56 171  95  73 169  94  93 175 154 108 110 110 157 196 157  97 190 137 167 213 205 190 204 207 179 195 200 
161 132 133 140 203 187 103 177 102  83 178 108  73 197 131 152 111 119 132 199 190 154 209 179 151 188 130  71 179 100  72 174  99  77 205 167 169 181 121  61 182 113  86 184 114 144 209 195 110 174  93  71 175  96  93 168 149 152 187 147  72 172  99  72 177 103  69 175  99  62 170  91  57 168  88 115 212 182 107 168  84  59 172  95  56 170  90  59 169  87  66 195 151 155 179 112  62 174  98  66 183 126 173 165 167 112 166 156 106 171  89  63 172  87  65 179 104 102 209 158 
147 194 194 156 198 201 173 185 125  72 179 111  83 175 101  89 204 161 141 181 110  67 180 105  80 185 123 143 216 183 103 176  98  69 175 102  63 180 106  68 179 106 137 148 148  64 128 122 128 180 101  71 179  98  63 194 160 162 179 114  63 179 106  66 183 112 126 201 153  85 176 100  64 184 129 147 183 123  57 171  97  74 190 146 146 177 156 107 175 102  67 170  83 114 204 170  83 169  89  71 175  89  67 203 163 208 197 161  66 177  95  74 177  95  71 194 146 132  68  77 
117 186 186 153 182 182 180 210 187  95 177 103  79 179 110  76 178 103  77 181 108  75 174  96  69 203 154 148  92  95 126 197 177  96 174 100  73 175 100  83 195 164  98  65  63 130 206 205 142 181 103  62 182 119 127 198 153  77 175  94  74 177 100  77 191 160 118  62  65 139 198 186  86 184 127 139 181 112  63 178 101 130 130 130  53  97 107 175 199 142  58 173  86  89 205 167 102 168  89  65 176  96  66 172  97  71 175  99  72 179  99  73 176  90 106 133 117  74 146 150 
168 188 185 160 187 184 163 201 206 162 181 114  72 177 107  78 180 106  79 179 113 119 195 173 135  69  73  65 146 142 174 208 213 130 177  97  70 173  98  89 157 135  97 155 151 163 194 201 153 177 100  53 190 136 153 201 160 123 194 140  99 183 108  98 162 144 100 173 177 194 190 135  50 177 110 139 193 144  65 170  94  71 191 129 153 197 167 107 173  94  67 170  84 115 202 170  98 176 101  69 172  99  74 173  98  73 177  96  73 178 100  60 196 121 124  85  89 116 202 200 
153 186 186 160 186 184 157 182 183 183 201 170  85 177 105  81 181 107  72 200 140 165 102 111 103 189 183 169 181 179 160 206 194 136 179 103  69 172  99  87 157 126 100 152 153 185 213 185 128 199 152 139 176 153 129 156 135 138 153 150  92  77  77 104 172 153 178 204 177 114 185 111  70 167  83  66 203 163 155 182 113  57 173  84  59 172  89  62 167  90  72 202 165 153 183 121 138 178 178 124 178  99  65 172 102  73 173 100  73 169  95  79 183 145 101 117 114 154 190 184 
149 185 183 158 184 182 152 180 179 161 208 200 127 173 101  75 184 103  75 178  99  92 200 171 182 210 202 168 154 136 123 199 175 126 177 103  78 183 111  81 187 143 170 198 197 163 141 145  77  65  67  82  88  80  46  50  38  43  45  39  63  94  68  74  84  71  84  91  97  88  95  95 109 151 137 119 201 151 177 161 163 158 216 191 158 208 169 140 201 167 150 180 123  63 189 139 122  82  84 118 186 163  95 168  93  72 173  98  72 173  98 117 126 122  93 177 174 160 186 180 
147 183 181 152 183 182 155 185 183 149 185 189 174 192 132  75 130 102 107 121 101 101 186 144 139 137 132  95 151 148 173 167 152 129 135 132 117 112 114 110 125 121 101  80  75 120 195 194 165 193 191 158 187 180 144 113 103  56  64  57  67  85  67  73 103  94 122 164 161 165 188 188 147 144 144 107  92  92  51  38  34  54  65  56  72  93  95 122 166 145 142 199 143  97 187 138 155 178 184 132 138 140 146 191 144  66 169  93  60 191 125 125  89  87 121 196 195 151 184 183 
157 185 181 160 184 183 155 180 179 165 211 206 144 157 108  76  56  68  84  66  70  91  53  64  77 122 117 138 179 182 160 150 154 138 111 110 107 111 106 138 165 162 146 181 179 159 182 180 153 181 178 155 175 177 137 116 116  77  84  78  78  85  69  83 111 103 122 159 156 152 179 177 152 161 161 112 110 113 106  79  84 103  99  91  70  91  71  87  89  88  82  75  76  76 112 108  96 112 113 147 196 192 132 145 146 146 179 102  74 169 136  92 133 130 164 182 179 163 191 187 
162 185 183 164 188 186 158 185 182 161 191 192 147  84  85 105 134 126 142 133 126 117  98  97 131 173 169 150 188 193 212 171 183 162 142 152 105  92  90 131 170 167 155 181 177 153 178 175 148 178 180 158 130 131  83  87  89  86  92  92 122 148 143 109 121 120 153 177 178 151 185 181 148 126 127  94  75  79  74  62  59  64  83  82  86 101  89 134 177 179 161 195 192 163 163 160 122 170 174 158 178 180 168 170 171 139 180 164 128 145 132  84  92  87  78 120 114 111 168 171 
158 184 183 155 187 185 155 182 184 161 178 182 152 177 174 167 188 178 173 177 171 170 143 134 153 175 172 132  92  95  82 102  93  94  89  82  72  95  95 135 165 162 155 182 180 156 179 176 150 181 178 160 129 129  74  83  76  79  81  75 102 131 130 110 147 142 158 181 178 148 182 181 145 105 100  66  74  62  63  58  47  57  93  79 105 120 117 144 185 182 147 183 182 157 177 180 155 181 186 158 173 185 154 165 181 174 149 156  96 130 123 152 176 165 147  88  81  65 138 134 
158 184 183 151 183 183 159 186 183 154 185 184 166 185 187 171 151 149 130 108 106 122 114 112 151 162 153 100  64  57  96 149 140 102 105  91  87 100  93 133 168 165 153 180 177 155 179 178 148 182 176 144 112 111  83 126 110 101 115  98  74  95  88 115 150 146 147 178 174 141 176 172 131 128 124 122 160 144  84  83  67  56  78  70 103 137 130 153 180 176 141 176 174 157 182 189 163 159 171 137 135 145 148 166 173 127  80  76 124 147 138 130  99  90  81  67  63 101 160 156 
153 186 185 154 188 186 156 179 182 147 129 127  95  58  54  85 141 153 226 154 167  92  44  39  70  72  75  92 122 128 205 172 185 147  74  71  79 108 103 132 169 166 147 180 178 149 182 180 146 186 183 158 114 109  60 101  90 106  87  80  74 101  93 129 170 167 151 177 172 141 181 176 151 141 140  76  75  64  60  52  43  55  94  88  97  96  87 106 131 125 135 180 188 170 160 170 137 129 137 123 141 150 144 121 114 141  68  69  51  56  53  75  77  83 111 146 138 152 181 179 
158 187 183 157 190 189 161 114 113  57  47  44  62  54  53  54 106 107 159  78  76  49  52  50  59  48  46  60 112 117 193 160 171 193 130 138 112  94  93 105 115 105 129 164 157 155 154 155 123 120 120 119 115 117 140 110 100  51 108  89 102 105 103 120 125 121 119 154 152 130 174 170 143 183 180 156 125 118  51  51  39  51  68  56  72 104 105 151 128 129 172 180 189 158 106 109 140  99 100 119  94  92 139 114 112 150 113 113 141 122 125 139 165 176 141 145 147 152 188 186 
156 185 184 155 196 195 129  63  61  46  51  50  59  53  50  58  50  49  56  51  50  57  48  46  54  51  49  52  72  71 145 137 147 187 145 154 106  74  69  76  87  89 119 115 114 116  74  73  64  62  60  76  65  69  97 101 104 103 106 102 129 123 124 143 112 119 155 113 108 126 173 168 136 179 176 122  90  84  99 151 138 153 190 175 179 180 179 159 144 149 171 162 169 150  96  98 155 118 116 152 107 105 110  86  90 114 100 105 119 111 120 100 122 130 126 137 138 144 185 183 
158 187 184 159 190 196 125  58  54  49  51  49  59  54  51  58  50  49  55  52  46  50  47  44  52  49  46  55  48  54  86 103 107 152 116 120 100  90  79  65  56  51  64  70  70  77  65  56  59  67  54  98 157 151 177 206 203 192 166 164 112 103 102 103  81  84 113 101 103 116 146 145 147 135 129  78  87  85 109 116  91 100 127 105 111 136 126 143 167 163 175 152 153 159 106 110 135 152 153 154 187 172 165 126 121 119 109 106 129 143 140 111 116 125 134 143 138 143 185 184 
155 187 186 165 173 171  78  42  40  58  64  63  68  54  52  58  52  50  58  50  49  53  47  44  53  49  46  50  68  71 128 114 117 124  81  89  85  97  85  72  67  58  58  64  55  58  61  49  59  71  59  63  55  44  58 106  98 104  96  91  87  65  62  60  74  73  94  61  57  84 175 172 158 156 154 109 119 109  98 119  93  96 112  89  86 108  83  95 135 121 172 149 140  63  67  60  97 134 126 131 150 134 145 112 109 120 151 153 146 144 153 123 122 126 132 166 162 153 180 177 
150 183 182 160 185 182  99  44  42  55 117 118 117  60  58  56  53  51  59  53  52  57  49  46  55  49  48  47  56  57 126 139 143 172 110 117  66  63  51  59  54  50  53  56  47  68  92  81  63  59  56  60  55  51  59  76  73  96 116 119  93 101 100 122 106 103  54  62  53  71  88  80  71  73  65  65  64  54  61  73  61  69  83  69  79  97  79  93 105  89  92  90  79  75  66  55  74 136 122 143 135 120 126 160 144 147 108 104  98 105  97 122 149 142 145 179 175 150 182 179 
150 178 176 157 167 165  81  44  42  54 124 121 136  75  74  47  52  51  58  52  50  55  48  45  56  48  45  53  46  46  58  63  62  71  56  56  63  70  62  62  58  47  62  86  80  70  83  74  65  68  58  58  61  56  83  99 100  88  97  95  71  47  44  77 109 108  83  64  60  56  56  52  59  61  56  72  86  65  64  78  67  63  64  53  53  61  54  56  59  49  55  64  54  58  69  66 123 156 135 137 125 108  84 114 101 110  91  74  82 109  86 102 113 104 113 128 122 144 172 169 
152 185 183 152 183 179 111  52  50  49 113 112 122  69  68  50  54  52  60  52  50  57  49  46  54  50  48  56  49  48  58  49  47  49  55  52  67  61  57  55  59  54  55  50  47  60  80  71  67  64  56  57  49  46  72  87  84  71  56  52  56  51  50  56  78  75  73  74  69  67  54  49  57  88  86  87  93  79  72  85  65  64  83  69  70  83  68  66  77  63  54  59  49  54  80  71 126 159 138 110  67  56  50  62  54  64  76  63  72  88  70  82 109  84  96 112  92  97 119 109 
141 190 188 159 197 194 144  71  73  43 104 105 118  67  65  51  53  52  60  51  50  54  48  47  57  49  49  55  48  47  69  65  63  49  46  44  64  62  60  55  54  53  56  55  53  52  55  50  57  51  47  51  53  53  77  63  66  69  54  53  59  53  51  60  63  59  68  69  63  72  62  57  81 116 106  83  89  70  71  86  75  67  75  65  60  70  60  58  77  65  60  65  54  66 119 105 145 124 114  67  66  57  63  75  64  58  55  51  59  66  58  56  56  52  64  79  66  80 102  94 
132 183 180 153 181 178 135 134 131 114 127 127 114  63  59  49  52  49  58  51  50  57  49  47  55  50  49  60  69  66  83  72  71  94 122 114  83  51  50  57  56  53  57  56  54  54  50  48  59  54  53  75  96 100 114  92  94  89  74  73  67  52  50  55  57  54  71  71  66  60  75  68  97 106  93  67  82  67  68  76  63  57  73  63  58  71  61  62  72  63  65  77  65 102 176 160 143  74  65  50  73  63  61  77  67  66  70  60  60  77  67  75  94  75  82  94  76  92 116 106 
133 144 139 116 159 156 134 133 129 136 154 137 125  65  63  48  48  50  57  51  50  55  52  55  65  63  59  83  89  86  81  96  95 148 184 171 138  70  68  58  59  57  58  58  57  57  52  50  57  56  53  63  59  59  70  78  77  86  81  80  81  72  70  66  58  56  62  58  54  62 101  94 103 100  84  70  79  64  63  88  72  71  79  69  62  72  59  59  70  60  74  78  74  67  84  85 121  89  78  69  84  69  66  74  62  60  74  64  63  75  65  73  84  74  72  86  82 110 137 137 
