P3
20
17
255
105 121 112  89 129 104 109 135 117  88 122 123 144 190 141 114 190 133 139 169 157 153 184 166 160 189 161 135 184 143 157 189 171 151 187 161 167 196 165 130 167 155 139 128 131 140 134 134 112 153 131  96  87  93 154 152 157 139 168 157 
136 160 156  91 177 101  75 179 111 127 188 150  75 177 101  91 186 128  80 179 104  67 176 100  96 185 130  66 173  99  95 163 146 113 176 104 101 189 140  75 176  99  87 189 124  82 180 104  70 176 113 147 149 151 111 184 124 141 187 182 
163 194 193  99 179 104  72 179 105  72 178 103  68 174  99 108 188 135  91 154 118 130 166 150  63 178 113  90 172 100  61 171  95  66 172  98  91 139 118  95 183 110  93 164 125 131 177 143  72 176  93  84 182 112  59 177  96 109 182 147 
109 115 146 154 109 181 104  96 184 147  96 181 129 126 184 123  94 186 120  71 176 120  89 175 102  85 184 118  67 177 122 120 157 112  72 172 120 107 169 110  72 172 117  87 145 139 128 171 152 110 182  97  64 182 116 109 124 106  94 120 
188 154 194 156 113 180 103  99 175 168 157 180 154 139 160 123  66 179 131 126 195 153 125 156 162 152 195 140 112 187 158 142 179 157 136 173 157 125 171 112  90 181 132 124 163 181 158 190 137  82 175  95  89 161 134 116 165 186 150 185 
188 167 198 169 131 190 128  90 179  98  64 177 113 108 182 155 132 141 136 141 170 129  72 174  97  62 172 106  79 183 140 114 180 103  83 151 141 124 174 114  95 144 123 117 153 159 129 186 127  98 185 142 124 164 160 147 189 182 153 187 
171 142 179 127  84 178 116 108 166 156 130 193 146 116 187 110  92 183 162 132 191 137 138 201 139  83 173 117 114 166 127  85 175 107  85 180 135 112 190 134 110 183 109  85 181 136 111 181  99  73 175 139 137 159 134 108 186 150 134 196 
153 143 190 173 130 187 106  81 184 120  90 179 119 110 174 138  98 180 102  71 182 120 107 136 132 100 180 132 107 186 103  70 182 122 117 159 135 109 183 108  81 167 134 120 162 103  82 188 128  80 172 111 103 186 113  71 177 112  95 135 
180 160 186 189 166 191 124  79 178 116 108 169 135 118 146 182 150 192  99  78 164 141 136 178 159 118 185 146 135 176 118  98 148 162 146 188 109  81 185 128  87 179 117  95 177 108 101 189 142 107 176  99  71 173  97  71 181 117 123 148 
182 151 183 181 154 189 155 112 169 101  93 171 162 146 163 152 137 169 115  96 151 134 138 153 149 120 133 100  72  68  57  69  91 105 114 134 141 120 147 110 110 120 127 123 167 144 113 188 136 131 146 135  94 175 103  93 144 144 131 185 
183 160 185 182 159 191 147 118 107  97 108  87 111 124 165 178 168 143 114 120 134 171 153 180 178 153 166 128  95  94  95  98 116 139 144 175 161 126 118  83  86  80  83  94 114 133 120 136 138 130 164 172 146 168 133  94 134 127 129 165 
167 155 184 183 157 182 181 164 175 151 148 135 142 134 123  96  93 111  90 106 132 171 154 180 177 150 151 106  84 101  97 100 130 160 148 179 144 116 116  80  65  78  99 126 155 178 150 179 181 153 162 171 150 140 123 125 138  99  98 113 
175 155 187 167 130 117  69  74  89 125 131  82  52  70  88 150 184 134 101 107 121 151 145 170 159 136 133 104  89 101  91 106 125 153 135 171 166 131 131  66  54  66  84 106 114 157 158 156 129 129 115 117 143 104  90 101 105 136 139 165 
184 157 189 126  87  55  50  58  51  48  54  49  46  53  55  94 142 125 105  86  76  81  94  81  60  74  87 131 142 144 123 121 104 103 127 133 154 120 122  99 115 146 146 148 156 158 163 129 119 149 141 122 127 105 117 114 123 132 136 162 
182 157 182 108  72  66  72  74  54  50  56  49  46  51  55  97 137 111  85  70  70  52  59  68  61  61  60  66  79  98  93  90  86  71  75  96 117 100 103  79  81  96  80  88 111 107 100  93  90 111 138 126 134 132 126 122 130 151 145 176 
176 152 178 109  73  83  93  88  62  50  57  50  46  54  48  50  59  55  56  61  62  57  61  74  64  61  60  71  78  84  60  65  71  78  69  62  60  68  82  69  65  77  61  61  70  53  55  68 102 124 126  79  77  85  73  84 104 100 112 132 
142 146 187 144 109 109  89  83  58  50  57  49  48  56  54  61  73  76  67  64  55  53  54  54  49  60  63  78  87  70  56  60  56  60  67  69  81  82  98  68  65  77  62  59  72  61  73 109 111 101  84  62  62  69  59  62  73  67  79  97 
